<svg xmlns="http://www.w3.org/2000/svg" width="871.082" height="639.96" viewBox="0 0 871.082 639.96">
  <g id="Group_60" data-name="Group 60" transform="translate(-2324.992 -3953.218)">
    <g id="Group_57" data-name="Group 57" transform="translate(3415.187 -794.122) rotate(41)">
      <path id="digital" d="M103.987,70.1l-6.7,12.336a1.555,1.555,0,0,1-1.984.726l-9.863-4.232a1.738,1.738,0,0,1-.885-2.213,1.569,1.569,0,0,1,2.082-.94l8.574,3.679,5.31-9.777-7.275-6.045a1.764,1.764,0,0,1-.544-1.839,39.68,39.68,0,0,0,0-21.9,1.764,1.764,0,0,1,.544-1.839l7.275-6.045-5.31-9.777-8.574,3.679a1.533,1.533,0,0,1-1.77-.419A34.448,34.448,0,0,0,67.038,14.543a1.664,1.664,0,0,1-1.228-1.421L64.522,3.4H53.9l-1.288,9.721a1.665,1.665,0,0,1-1.228,1.421A34.448,34.448,0,0,0,33.557,25.493a1.533,1.533,0,0,1-1.77.419l-8.574-3.679L17.9,32.01l7.275,6.045a1.764,1.764,0,0,1,.544,1.839,39.68,39.68,0,0,0,0,21.9,1.764,1.764,0,0,1-.544,1.839L17.9,69.674l5.311,9.777,8.574-3.679a1.533,1.533,0,0,1,1.77.419A34.448,34.448,0,0,0,51.385,87.142a1.664,1.664,0,0,1,1.228,1.421L53.9,98.284H64.522l1.288-9.721a1.665,1.665,0,0,1,1.228-1.421,33.628,33.628,0,0,0,10.593-4.626,1.546,1.546,0,0,1,2.2.55,1.764,1.764,0,0,1-.517,2.341,36.8,36.8,0,0,1-10.489,4.771L67.5,100.221a1.635,1.635,0,0,1-1.584,1.463h-13.4a1.635,1.635,0,0,1-1.584-1.463L49.6,90.178A37.563,37.563,0,0,1,31.98,79.356l-8.858,3.8a1.554,1.554,0,0,1-1.984-.726l-6.7-12.336a1.772,1.772,0,0,1,.4-2.19l7.517-6.246a43.338,43.338,0,0,1,0-21.635l-7.517-6.246a1.772,1.772,0,0,1-.4-2.19l6.7-12.336a1.555,1.555,0,0,1,1.984-.726l8.858,3.8A37.563,37.563,0,0,1,49.6,11.5L50.927,1.462A1.635,1.635,0,0,1,52.511,0h13.4A1.635,1.635,0,0,1,67.5,1.463l1.331,10.043A37.563,37.563,0,0,1,86.444,22.328l8.858-3.8a1.555,1.555,0,0,1,1.984.726l6.7,12.336a1.772,1.772,0,0,1-.4,2.19l-7.517,6.246a43.338,43.338,0,0,1,0,21.635l7.517,6.246a1.772,1.772,0,0,1,.4,2.189ZM56.591,58.93l8-14.452a1.761,1.761,0,0,0-.568-2.328,1.549,1.549,0,0,0-2.19.6l-8,14.452a1.761,1.761,0,0,0,.568,2.328,1.548,1.548,0,0,0,2.19-.6ZM50.345,44.324a1.534,1.534,0,0,0-2.262,0l-5,5.316a1.777,1.777,0,0,0,0,2.4l5,5.316a1.534,1.534,0,0,0,2.262,0,1.777,1.777,0,0,0,0-2.4l-3.87-4.113,3.87-4.113a1.777,1.777,0,0,0,0-2.405ZM69.009,57.858a1.548,1.548,0,0,0,1.131-.5l5-5.316a1.777,1.777,0,0,0,0-2.4l-5-5.316a1.534,1.534,0,0,0-2.262,0,1.777,1.777,0,0,0,0,2.4l3.87,4.113-3.87,4.114a1.718,1.718,0,0,0,1.131,2.9ZM49.85,77.98a25.765,25.765,0,0,0,9.377,1.782c19.76,0,33-21.932,24.657-41.074-6.305-14.46-22.5-20.772-36.107-14.07-17.3,8.52-21.217,33.018-7.384,47.1a1.533,1.533,0,0,0,2.262-.052,1.777,1.777,0,0,0-.049-2.4c-12.2-12.417-8.752-34.037,6.516-41.558,12-5.913,26.3-.344,31.859,12.415S81.3,68.068,69.3,73.981a22.547,22.547,0,0,1-18.35.806A1.575,1.575,0,0,0,48.9,75.8,1.732,1.732,0,0,0,49.85,77.98Z" transform="translate(2608.778 4283.759)" fill="#0f4c75"/>
      <path id="digital-2" data-name="digital" d="M103.987,70.1l-6.7,12.336a1.555,1.555,0,0,1-1.984.726l-9.863-4.232a1.738,1.738,0,0,1-.885-2.213,1.569,1.569,0,0,1,2.082-.94l8.574,3.679,5.31-9.777-7.275-6.045a1.764,1.764,0,0,1-.544-1.839,39.68,39.68,0,0,0,0-21.9,1.764,1.764,0,0,1,.544-1.839l7.275-6.045-5.31-9.777-8.574,3.679a1.533,1.533,0,0,1-1.77-.419A34.448,34.448,0,0,0,67.038,14.543a1.664,1.664,0,0,1-1.228-1.421L64.522,3.4H53.9l-1.288,9.721a1.665,1.665,0,0,1-1.228,1.421A34.448,34.448,0,0,0,33.557,25.493a1.533,1.533,0,0,1-1.77.419l-8.574-3.679L17.9,32.01l7.275,6.045a1.764,1.764,0,0,1,.544,1.839,39.68,39.68,0,0,0,0,21.9,1.764,1.764,0,0,1-.544,1.839L17.9,69.674l5.311,9.777,8.574-3.679a1.533,1.533,0,0,1,1.77.419A34.448,34.448,0,0,0,51.385,87.142a1.664,1.664,0,0,1,1.228,1.421L53.9,98.284H64.522l1.288-9.721a1.665,1.665,0,0,1,1.228-1.421,33.628,33.628,0,0,0,10.593-4.626,1.546,1.546,0,0,1,2.2.55,1.764,1.764,0,0,1-.517,2.341,36.8,36.8,0,0,1-10.489,4.771L67.5,100.221a1.635,1.635,0,0,1-1.584,1.463h-13.4a1.635,1.635,0,0,1-1.584-1.463L49.6,90.178A37.563,37.563,0,0,1,31.98,79.356l-8.858,3.8a1.554,1.554,0,0,1-1.984-.726l-6.7-12.336a1.772,1.772,0,0,1,.4-2.19l7.517-6.246a43.338,43.338,0,0,1,0-21.635l-7.517-6.246a1.772,1.772,0,0,1-.4-2.19l6.7-12.336a1.555,1.555,0,0,1,1.984-.726l8.858,3.8A37.563,37.563,0,0,1,49.6,11.5L50.927,1.462A1.635,1.635,0,0,1,52.511,0h13.4A1.635,1.635,0,0,1,67.5,1.463l1.331,10.043A37.563,37.563,0,0,1,86.444,22.328l8.858-3.8a1.555,1.555,0,0,1,1.984.726l6.7,12.336a1.772,1.772,0,0,1-.4,2.19l-7.517,6.246a43.338,43.338,0,0,1,0,21.635l7.517,6.246a1.772,1.772,0,0,1,.4,2.189ZM56.591,58.93l8-14.452a1.761,1.761,0,0,0-.568-2.328,1.549,1.549,0,0,0-2.19.6l-8,14.452a1.761,1.761,0,0,0,.568,2.328,1.548,1.548,0,0,0,2.19-.6ZM50.345,44.324a1.534,1.534,0,0,0-2.262,0l-5,5.316a1.777,1.777,0,0,0,0,2.4l5,5.316a1.534,1.534,0,0,0,2.262,0,1.777,1.777,0,0,0,0-2.4l-3.87-4.113,3.87-4.113a1.777,1.777,0,0,0,0-2.405ZM69.009,57.858a1.548,1.548,0,0,0,1.131-.5l5-5.316a1.777,1.777,0,0,0,0-2.4l-5-5.316a1.534,1.534,0,0,0-2.262,0,1.777,1.777,0,0,0,0,2.4l3.87,4.113-3.87,4.114a1.718,1.718,0,0,0,1.131,2.9ZM49.85,77.98a25.765,25.765,0,0,0,9.377,1.782c19.76,0,33-21.932,24.657-41.074-6.305-14.46-22.5-20.772-36.107-14.07-17.3,8.52-21.217,33.018-7.384,47.1a1.533,1.533,0,0,0,2.262-.052,1.777,1.777,0,0,0-.049-2.4c-12.2-12.417-8.752-34.037,6.516-41.558,12-5.913,26.3-.344,31.859,12.415S81.3,68.068,69.3,73.981a22.547,22.547,0,0,1-18.35.806A1.575,1.575,0,0,0,48.9,75.8,1.732,1.732,0,0,0,49.85,77.98Z" transform="translate(2608.778 4283.759)" fill="#0f4c75"/>
      <path id="digital-3" data-name="digital" d="M103.987,70.1l-6.7,12.336a1.555,1.555,0,0,1-1.984.726l-9.863-4.232a1.738,1.738,0,0,1-.885-2.213,1.569,1.569,0,0,1,2.082-.94l8.574,3.679,5.31-9.777-7.275-6.045a1.764,1.764,0,0,1-.544-1.839,39.68,39.68,0,0,0,0-21.9,1.764,1.764,0,0,1,.544-1.839l7.275-6.045-5.31-9.777-8.574,3.679a1.533,1.533,0,0,1-1.77-.419A34.448,34.448,0,0,0,67.038,14.543a1.664,1.664,0,0,1-1.228-1.421L64.522,3.4H53.9l-1.288,9.721a1.665,1.665,0,0,1-1.228,1.421A34.448,34.448,0,0,0,33.557,25.493a1.533,1.533,0,0,1-1.77.419l-8.574-3.679L17.9,32.01l7.275,6.045a1.764,1.764,0,0,1,.544,1.839,39.68,39.68,0,0,0,0,21.9,1.764,1.764,0,0,1-.544,1.839L17.9,69.674l5.311,9.777,8.574-3.679a1.533,1.533,0,0,1,1.77.419A34.448,34.448,0,0,0,51.385,87.142a1.664,1.664,0,0,1,1.228,1.421L53.9,98.284H64.522l1.288-9.721a1.665,1.665,0,0,1,1.228-1.421,33.628,33.628,0,0,0,10.593-4.626,1.546,1.546,0,0,1,2.2.55,1.764,1.764,0,0,1-.517,2.341,36.8,36.8,0,0,1-10.489,4.771L67.5,100.221a1.635,1.635,0,0,1-1.584,1.463h-13.4a1.635,1.635,0,0,1-1.584-1.463L49.6,90.178A37.563,37.563,0,0,1,31.98,79.356l-8.858,3.8a1.554,1.554,0,0,1-1.984-.726l-6.7-12.336a1.772,1.772,0,0,1,.4-2.19l7.517-6.246a43.338,43.338,0,0,1,0-21.635l-7.517-6.246a1.772,1.772,0,0,1-.4-2.19l6.7-12.336a1.555,1.555,0,0,1,1.984-.726l8.858,3.8A37.563,37.563,0,0,1,49.6,11.5L50.927,1.462A1.635,1.635,0,0,1,52.511,0h13.4A1.635,1.635,0,0,1,67.5,1.463l1.331,10.043A37.563,37.563,0,0,1,86.444,22.328l8.858-3.8a1.555,1.555,0,0,1,1.984.726l6.7,12.336a1.772,1.772,0,0,1-.4,2.19l-7.517,6.246a43.338,43.338,0,0,1,0,21.635l7.517,6.246a1.772,1.772,0,0,1,.4,2.189ZM56.591,58.93l8-14.452a1.761,1.761,0,0,0-.568-2.328,1.549,1.549,0,0,0-2.19.6l-8,14.452a1.761,1.761,0,0,0,.568,2.328,1.548,1.548,0,0,0,2.19-.6ZM50.345,44.324a1.534,1.534,0,0,0-2.262,0l-5,5.316a1.777,1.777,0,0,0,0,2.4l5,5.316a1.534,1.534,0,0,0,2.262,0,1.777,1.777,0,0,0,0-2.4l-3.87-4.113,3.87-4.113a1.777,1.777,0,0,0,0-2.405ZM69.009,57.858a1.548,1.548,0,0,0,1.131-.5l5-5.316a1.777,1.777,0,0,0,0-2.4l-5-5.316a1.534,1.534,0,0,0-2.262,0,1.777,1.777,0,0,0,0,2.4l3.87,4.113-3.87,4.114a1.718,1.718,0,0,0,1.131,2.9ZM49.85,77.98a25.765,25.765,0,0,0,9.377,1.782c19.76,0,33-21.932,24.657-41.074-6.305-14.46-22.5-20.772-36.107-14.07-17.3,8.52-21.217,33.018-7.384,47.1a1.533,1.533,0,0,0,2.262-.052,1.777,1.777,0,0,0-.049-2.4c-12.2-12.417-8.752-34.037,6.516-41.558,12-5.913,26.3-.344,31.859,12.415S81.3,68.068,69.3,73.981a22.547,22.547,0,0,1-18.35.806A1.575,1.575,0,0,0,48.9,75.8,1.732,1.732,0,0,0,49.85,77.98Z" transform="translate(2608.778 4283.759)" fill="#0f4c75"/>
      <path id="digital-4" data-name="digital" d="M103.987,70.1l-6.7,12.336a1.555,1.555,0,0,1-1.984.726l-9.863-4.232a1.738,1.738,0,0,1-.885-2.213,1.569,1.569,0,0,1,2.082-.94l8.574,3.679,5.31-9.777-7.275-6.045a1.764,1.764,0,0,1-.544-1.839,39.68,39.68,0,0,0,0-21.9,1.764,1.764,0,0,1,.544-1.839l7.275-6.045-5.31-9.777-8.574,3.679a1.533,1.533,0,0,1-1.77-.419A34.448,34.448,0,0,0,67.038,14.543a1.664,1.664,0,0,1-1.228-1.421L64.522,3.4H53.9l-1.288,9.721a1.665,1.665,0,0,1-1.228,1.421A34.448,34.448,0,0,0,33.557,25.493a1.533,1.533,0,0,1-1.77.419l-8.574-3.679L17.9,32.01l7.275,6.045a1.764,1.764,0,0,1,.544,1.839,39.68,39.68,0,0,0,0,21.9,1.764,1.764,0,0,1-.544,1.839L17.9,69.674l5.311,9.777,8.574-3.679a1.533,1.533,0,0,1,1.77.419A34.448,34.448,0,0,0,51.385,87.142a1.664,1.664,0,0,1,1.228,1.421L53.9,98.284H64.522l1.288-9.721a1.665,1.665,0,0,1,1.228-1.421,33.628,33.628,0,0,0,10.593-4.626,1.546,1.546,0,0,1,2.2.55,1.764,1.764,0,0,1-.517,2.341,36.8,36.8,0,0,1-10.489,4.771L67.5,100.221a1.635,1.635,0,0,1-1.584,1.463h-13.4a1.635,1.635,0,0,1-1.584-1.463L49.6,90.178A37.563,37.563,0,0,1,31.98,79.356l-8.858,3.8a1.554,1.554,0,0,1-1.984-.726l-6.7-12.336a1.772,1.772,0,0,1,.4-2.19l7.517-6.246a43.338,43.338,0,0,1,0-21.635l-7.517-6.246a1.772,1.772,0,0,1-.4-2.19l6.7-12.336a1.555,1.555,0,0,1,1.984-.726l8.858,3.8A37.563,37.563,0,0,1,49.6,11.5L50.927,1.462A1.635,1.635,0,0,1,52.511,0h13.4A1.635,1.635,0,0,1,67.5,1.463l1.331,10.043A37.563,37.563,0,0,1,86.444,22.328l8.858-3.8a1.555,1.555,0,0,1,1.984.726l6.7,12.336a1.772,1.772,0,0,1-.4,2.19l-7.517,6.246a43.338,43.338,0,0,1,0,21.635l7.517,6.246a1.772,1.772,0,0,1,.4,2.189ZM56.591,58.93l8-14.452a1.761,1.761,0,0,0-.568-2.328,1.549,1.549,0,0,0-2.19.6l-8,14.452a1.761,1.761,0,0,0,.568,2.328,1.548,1.548,0,0,0,2.19-.6ZM50.345,44.324a1.534,1.534,0,0,0-2.262,0l-5,5.316a1.777,1.777,0,0,0,0,2.4l5,5.316a1.534,1.534,0,0,0,2.262,0,1.777,1.777,0,0,0,0-2.4l-3.87-4.113,3.87-4.113a1.777,1.777,0,0,0,0-2.405ZM69.009,57.858a1.548,1.548,0,0,0,1.131-.5l5-5.316a1.777,1.777,0,0,0,0-2.4l-5-5.316a1.534,1.534,0,0,0-2.262,0,1.777,1.777,0,0,0,0,2.4l3.87,4.113-3.87,4.114a1.718,1.718,0,0,0,1.131,2.9ZM49.85,77.98a25.765,25.765,0,0,0,9.377,1.782c19.76,0,33-21.932,24.657-41.074-6.305-14.46-22.5-20.772-36.107-14.07-17.3,8.52-21.217,33.018-7.384,47.1a1.533,1.533,0,0,0,2.262-.052,1.777,1.777,0,0,0-.049-2.4c-12.2-12.417-8.752-34.037,6.516-41.558,12-5.913,26.3-.344,31.859,12.415S81.3,68.068,69.3,73.981a22.547,22.547,0,0,1-18.35.806A1.575,1.575,0,0,0,48.9,75.8,1.732,1.732,0,0,0,49.85,77.98Z" transform="translate(2608.778 4283.759)" fill="#0f4c75"/>
      <path id="digital-5" data-name="digital" d="M103.987,70.1l-6.7,12.336a1.555,1.555,0,0,1-1.984.726l-9.863-4.232a1.738,1.738,0,0,1-.885-2.213,1.569,1.569,0,0,1,2.082-.94l8.574,3.679,5.31-9.777-7.275-6.045a1.764,1.764,0,0,1-.544-1.839,39.68,39.68,0,0,0,0-21.9,1.764,1.764,0,0,1,.544-1.839l7.275-6.045-5.31-9.777-8.574,3.679a1.533,1.533,0,0,1-1.77-.419A34.448,34.448,0,0,0,67.038,14.543a1.664,1.664,0,0,1-1.228-1.421L64.522,3.4H53.9l-1.288,9.721a1.665,1.665,0,0,1-1.228,1.421A34.448,34.448,0,0,0,33.557,25.493a1.533,1.533,0,0,1-1.77.419l-8.574-3.679L17.9,32.01l7.275,6.045a1.764,1.764,0,0,1,.544,1.839,39.68,39.68,0,0,0,0,21.9,1.764,1.764,0,0,1-.544,1.839L17.9,69.674l5.311,9.777,8.574-3.679a1.533,1.533,0,0,1,1.77.419A34.448,34.448,0,0,0,51.385,87.142a1.664,1.664,0,0,1,1.228,1.421L53.9,98.284H64.522l1.288-9.721a1.665,1.665,0,0,1,1.228-1.421,33.628,33.628,0,0,0,10.593-4.626,1.546,1.546,0,0,1,2.2.55,1.764,1.764,0,0,1-.517,2.341,36.8,36.8,0,0,1-10.489,4.771L67.5,100.221a1.635,1.635,0,0,1-1.584,1.463h-13.4a1.635,1.635,0,0,1-1.584-1.463L49.6,90.178A37.563,37.563,0,0,1,31.98,79.356l-8.858,3.8a1.554,1.554,0,0,1-1.984-.726l-6.7-12.336a1.772,1.772,0,0,1,.4-2.19l7.517-6.246a43.338,43.338,0,0,1,0-21.635l-7.517-6.246a1.772,1.772,0,0,1-.4-2.19l6.7-12.336a1.555,1.555,0,0,1,1.984-.726l8.858,3.8A37.563,37.563,0,0,1,49.6,11.5L50.927,1.462A1.635,1.635,0,0,1,52.511,0h13.4A1.635,1.635,0,0,1,67.5,1.463l1.331,10.043A37.563,37.563,0,0,1,86.444,22.328l8.858-3.8a1.555,1.555,0,0,1,1.984.726l6.7,12.336a1.772,1.772,0,0,1-.4,2.19l-7.517,6.246a43.338,43.338,0,0,1,0,21.635l7.517,6.246a1.772,1.772,0,0,1,.4,2.189ZM56.591,58.93l8-14.452a1.761,1.761,0,0,0-.568-2.328,1.549,1.549,0,0,0-2.19.6l-8,14.452a1.761,1.761,0,0,0,.568,2.328,1.548,1.548,0,0,0,2.19-.6ZM50.345,44.324a1.534,1.534,0,0,0-2.262,0l-5,5.316a1.777,1.777,0,0,0,0,2.4l5,5.316a1.534,1.534,0,0,0,2.262,0,1.777,1.777,0,0,0,0-2.4l-3.87-4.113,3.87-4.113a1.777,1.777,0,0,0,0-2.405ZM69.009,57.858a1.548,1.548,0,0,0,1.131-.5l5-5.316a1.777,1.777,0,0,0,0-2.4l-5-5.316a1.534,1.534,0,0,0-2.262,0,1.777,1.777,0,0,0,0,2.4l3.87,4.113-3.87,4.114a1.718,1.718,0,0,0,1.131,2.9ZM49.85,77.98a25.765,25.765,0,0,0,9.377,1.782c19.76,0,33-21.932,24.657-41.074-6.305-14.46-22.5-20.772-36.107-14.07-17.3,8.52-21.217,33.018-7.384,47.1a1.533,1.533,0,0,0,2.262-.052,1.777,1.777,0,0,0-.049-2.4c-12.2-12.417-8.752-34.037,6.516-41.558,12-5.913,26.3-.344,31.859,12.415S81.3,68.068,69.3,73.981a22.547,22.547,0,0,1-18.35.806A1.575,1.575,0,0,0,48.9,75.8,1.732,1.732,0,0,0,49.85,77.98Z" transform="translate(2608.778 4283.759)" fill="#0f4c75"/>
    </g>
    <g id="Group_58" data-name="Group 58" transform="translate(-22 -17)">
      <path id="digital-6" data-name="digital" d="M103.987,70.1l-6.7,12.336a1.555,1.555,0,0,1-1.984.726l-9.863-4.232a1.738,1.738,0,0,1-.885-2.213,1.569,1.569,0,0,1,2.082-.94l8.574,3.679,5.31-9.777-7.275-6.045a1.764,1.764,0,0,1-.544-1.839,39.68,39.68,0,0,0,0-21.9,1.764,1.764,0,0,1,.544-1.839l7.275-6.045-5.31-9.777-8.574,3.679a1.533,1.533,0,0,1-1.77-.419A34.448,34.448,0,0,0,67.038,14.543a1.664,1.664,0,0,1-1.228-1.421L64.522,3.4H53.9l-1.288,9.721a1.665,1.665,0,0,1-1.228,1.421A34.448,34.448,0,0,0,33.557,25.493a1.533,1.533,0,0,1-1.77.419l-8.574-3.679L17.9,32.01l7.275,6.045a1.764,1.764,0,0,1,.544,1.839,39.68,39.68,0,0,0,0,21.9,1.764,1.764,0,0,1-.544,1.839L17.9,69.674l5.311,9.777,8.574-3.679a1.533,1.533,0,0,1,1.77.419A34.448,34.448,0,0,0,51.385,87.142a1.664,1.664,0,0,1,1.228,1.421L53.9,98.284H64.522l1.288-9.721a1.665,1.665,0,0,1,1.228-1.421,33.628,33.628,0,0,0,10.593-4.626,1.546,1.546,0,0,1,2.2.55,1.764,1.764,0,0,1-.517,2.341,36.8,36.8,0,0,1-10.489,4.771L67.5,100.221a1.635,1.635,0,0,1-1.584,1.463h-13.4a1.635,1.635,0,0,1-1.584-1.463L49.6,90.178A37.563,37.563,0,0,1,31.98,79.356l-8.858,3.8a1.554,1.554,0,0,1-1.984-.726l-6.7-12.336a1.772,1.772,0,0,1,.4-2.19l7.517-6.246a43.338,43.338,0,0,1,0-21.635l-7.517-6.246a1.772,1.772,0,0,1-.4-2.19l6.7-12.336a1.555,1.555,0,0,1,1.984-.726l8.858,3.8A37.563,37.563,0,0,1,49.6,11.5L50.927,1.462A1.635,1.635,0,0,1,52.511,0h13.4A1.635,1.635,0,0,1,67.5,1.463l1.331,10.043A37.563,37.563,0,0,1,86.444,22.328l8.858-3.8a1.555,1.555,0,0,1,1.984.726l6.7,12.336a1.772,1.772,0,0,1-.4,2.19l-7.517,6.246a43.338,43.338,0,0,1,0,21.635l7.517,6.246a1.772,1.772,0,0,1,.4,2.189ZM56.591,58.93l8-14.452a1.761,1.761,0,0,0-.568-2.328,1.549,1.549,0,0,0-2.19.6l-8,14.452a1.761,1.761,0,0,0,.568,2.328,1.548,1.548,0,0,0,2.19-.6ZM50.345,44.324a1.534,1.534,0,0,0-2.262,0l-5,5.316a1.777,1.777,0,0,0,0,2.4l5,5.316a1.534,1.534,0,0,0,2.262,0,1.777,1.777,0,0,0,0-2.4l-3.87-4.113,3.87-4.113a1.777,1.777,0,0,0,0-2.405ZM69.009,57.858a1.548,1.548,0,0,0,1.131-.5l5-5.316a1.777,1.777,0,0,0,0-2.4l-5-5.316a1.534,1.534,0,0,0-2.262,0,1.777,1.777,0,0,0,0,2.4l3.87,4.113-3.87,4.114a1.718,1.718,0,0,0,1.131,2.9ZM49.85,77.98a25.765,25.765,0,0,0,9.377,1.782c19.76,0,33-21.932,24.657-41.074-6.305-14.46-22.5-20.772-36.107-14.07-17.3,8.52-21.217,33.018-7.384,47.1a1.533,1.533,0,0,0,2.262-.052,1.777,1.777,0,0,0-.049-2.4c-12.2-12.417-8.752-34.037,6.516-41.558,12-5.913,26.3-.344,31.859,12.415S81.3,68.068,69.3,73.981a22.547,22.547,0,0,1-18.35.806A1.575,1.575,0,0,0,48.9,75.8,1.732,1.732,0,0,0,49.85,77.98Z" transform="matrix(0.875, 0.485, -0.485, 0.875, 2383.85, 4404.427)" fill="#0f4c75"/>
      <path id="digital-7" data-name="digital" d="M103.987,70.1l-6.7,12.336a1.555,1.555,0,0,1-1.984.726l-9.863-4.232a1.738,1.738,0,0,1-.885-2.213,1.569,1.569,0,0,1,2.082-.94l8.574,3.679,5.31-9.777-7.275-6.045a1.764,1.764,0,0,1-.544-1.839,39.68,39.68,0,0,0,0-21.9,1.764,1.764,0,0,1,.544-1.839l7.275-6.045-5.31-9.777-8.574,3.679a1.533,1.533,0,0,1-1.77-.419A34.448,34.448,0,0,0,67.038,14.543a1.664,1.664,0,0,1-1.228-1.421L64.522,3.4H53.9l-1.288,9.721a1.665,1.665,0,0,1-1.228,1.421A34.448,34.448,0,0,0,33.557,25.493a1.533,1.533,0,0,1-1.77.419l-8.574-3.679L17.9,32.01l7.275,6.045a1.764,1.764,0,0,1,.544,1.839,39.68,39.68,0,0,0,0,21.9,1.764,1.764,0,0,1-.544,1.839L17.9,69.674l5.311,9.777,8.574-3.679a1.533,1.533,0,0,1,1.77.419A34.448,34.448,0,0,0,51.385,87.142a1.664,1.664,0,0,1,1.228,1.421L53.9,98.284H64.522l1.288-9.721a1.665,1.665,0,0,1,1.228-1.421,33.628,33.628,0,0,0,10.593-4.626,1.546,1.546,0,0,1,2.2.55,1.764,1.764,0,0,1-.517,2.341,36.8,36.8,0,0,1-10.489,4.771L67.5,100.221a1.635,1.635,0,0,1-1.584,1.463h-13.4a1.635,1.635,0,0,1-1.584-1.463L49.6,90.178A37.563,37.563,0,0,1,31.98,79.356l-8.858,3.8a1.554,1.554,0,0,1-1.984-.726l-6.7-12.336a1.772,1.772,0,0,1,.4-2.19l7.517-6.246a43.338,43.338,0,0,1,0-21.635l-7.517-6.246a1.772,1.772,0,0,1-.4-2.19l6.7-12.336a1.555,1.555,0,0,1,1.984-.726l8.858,3.8A37.563,37.563,0,0,1,49.6,11.5L50.927,1.462A1.635,1.635,0,0,1,52.511,0h13.4A1.635,1.635,0,0,1,67.5,1.463l1.331,10.043A37.563,37.563,0,0,1,86.444,22.328l8.858-3.8a1.555,1.555,0,0,1,1.984.726l6.7,12.336a1.772,1.772,0,0,1-.4,2.19l-7.517,6.246a43.338,43.338,0,0,1,0,21.635l7.517,6.246a1.772,1.772,0,0,1,.4,2.189ZM56.591,58.93l8-14.452a1.761,1.761,0,0,0-.568-2.328,1.549,1.549,0,0,0-2.19.6l-8,14.452a1.761,1.761,0,0,0,.568,2.328,1.548,1.548,0,0,0,2.19-.6ZM50.345,44.324a1.534,1.534,0,0,0-2.262,0l-5,5.316a1.777,1.777,0,0,0,0,2.4l5,5.316a1.534,1.534,0,0,0,2.262,0,1.777,1.777,0,0,0,0-2.4l-3.87-4.113,3.87-4.113a1.777,1.777,0,0,0,0-2.405ZM69.009,57.858a1.548,1.548,0,0,0,1.131-.5l5-5.316a1.777,1.777,0,0,0,0-2.4l-5-5.316a1.534,1.534,0,0,0-2.262,0,1.777,1.777,0,0,0,0,2.4l3.87,4.113-3.87,4.114a1.718,1.718,0,0,0,1.131,2.9ZM49.85,77.98a25.765,25.765,0,0,0,9.377,1.782c19.76,0,33-21.932,24.657-41.074-6.305-14.46-22.5-20.772-36.107-14.07-17.3,8.52-21.217,33.018-7.384,47.1a1.533,1.533,0,0,0,2.262-.052,1.777,1.777,0,0,0-.049-2.4c-12.2-12.417-8.752-34.037,6.516-41.558,12-5.913,26.3-.344,31.859,12.415S81.3,68.068,69.3,73.981a22.547,22.547,0,0,1-18.35.806A1.575,1.575,0,0,0,48.9,75.8,1.732,1.732,0,0,0,49.85,77.98Z" transform="matrix(0.899, -0.438, 0.438, 0.899, 2876.482, 4277.861)" fill="#0f4c75"/>
      <path id="digital-8" data-name="digital" d="M103.987,70.1l-6.7,12.336a1.555,1.555,0,0,1-1.984.726l-9.863-4.232a1.738,1.738,0,0,1-.885-2.213,1.569,1.569,0,0,1,2.082-.94l8.574,3.679,5.31-9.777-7.275-6.045a1.764,1.764,0,0,1-.544-1.839,39.68,39.68,0,0,0,0-21.9,1.764,1.764,0,0,1,.544-1.839l7.275-6.045-5.31-9.777-8.574,3.679a1.533,1.533,0,0,1-1.77-.419A34.448,34.448,0,0,0,67.038,14.543a1.664,1.664,0,0,1-1.228-1.421L64.522,3.4H53.9l-1.288,9.721a1.665,1.665,0,0,1-1.228,1.421A34.448,34.448,0,0,0,33.557,25.493a1.533,1.533,0,0,1-1.77.419l-8.574-3.679L17.9,32.01l7.275,6.045a1.764,1.764,0,0,1,.544,1.839,39.68,39.68,0,0,0,0,21.9,1.764,1.764,0,0,1-.544,1.839L17.9,69.674l5.311,9.777,8.574-3.679a1.533,1.533,0,0,1,1.77.419A34.448,34.448,0,0,0,51.385,87.142a1.664,1.664,0,0,1,1.228,1.421L53.9,98.284H64.522l1.288-9.721a1.665,1.665,0,0,1,1.228-1.421,33.628,33.628,0,0,0,10.593-4.626,1.546,1.546,0,0,1,2.2.55,1.764,1.764,0,0,1-.517,2.341,36.8,36.8,0,0,1-10.489,4.771L67.5,100.221a1.635,1.635,0,0,1-1.584,1.463h-13.4a1.635,1.635,0,0,1-1.584-1.463L49.6,90.178A37.563,37.563,0,0,1,31.98,79.356l-8.858,3.8a1.554,1.554,0,0,1-1.984-.726l-6.7-12.336a1.772,1.772,0,0,1,.4-2.19l7.517-6.246a43.338,43.338,0,0,1,0-21.635l-7.517-6.246a1.772,1.772,0,0,1-.4-2.19l6.7-12.336a1.555,1.555,0,0,1,1.984-.726l8.858,3.8A37.563,37.563,0,0,1,49.6,11.5L50.927,1.462A1.635,1.635,0,0,1,52.511,0h13.4A1.635,1.635,0,0,1,67.5,1.463l1.331,10.043A37.563,37.563,0,0,1,86.444,22.328l8.858-3.8a1.555,1.555,0,0,1,1.984.726l6.7,12.336a1.772,1.772,0,0,1-.4,2.19l-7.517,6.246a43.338,43.338,0,0,1,0,21.635l7.517,6.246a1.772,1.772,0,0,1,.4,2.189ZM56.591,58.93l8-14.452a1.761,1.761,0,0,0-.568-2.328,1.549,1.549,0,0,0-2.19.6l-8,14.452a1.761,1.761,0,0,0,.568,2.328,1.548,1.548,0,0,0,2.19-.6ZM50.345,44.324a1.534,1.534,0,0,0-2.262,0l-5,5.316a1.777,1.777,0,0,0,0,2.4l5,5.316a1.534,1.534,0,0,0,2.262,0,1.777,1.777,0,0,0,0-2.4l-3.87-4.113,3.87-4.113a1.777,1.777,0,0,0,0-2.405ZM69.009,57.858a1.548,1.548,0,0,0,1.131-.5l5-5.316a1.777,1.777,0,0,0,0-2.4l-5-5.316a1.534,1.534,0,0,0-2.262,0,1.777,1.777,0,0,0,0,2.4l3.87,4.113-3.87,4.114a1.718,1.718,0,0,0,1.131,2.9ZM49.85,77.98a25.765,25.765,0,0,0,9.377,1.782c19.76,0,33-21.932,24.657-41.074-6.305-14.46-22.5-20.772-36.107-14.07-17.3,8.52-21.217,33.018-7.384,47.1a1.533,1.533,0,0,0,2.262-.052,1.777,1.777,0,0,0-.049-2.4c-12.2-12.417-8.752-34.037,6.516-41.558,12-5.913,26.3-.344,31.859,12.415S81.3,68.068,69.3,73.981a22.547,22.547,0,0,1-18.35.806A1.575,1.575,0,0,0,48.9,75.8,1.732,1.732,0,0,0,49.85,77.98Z" transform="translate(2720.778 4494.759)" fill="#0f4c75"/>
      <path id="digital-9" data-name="digital" d="M103.987,70.1l-6.7,12.336a1.555,1.555,0,0,1-1.984.726l-9.863-4.232a1.738,1.738,0,0,1-.885-2.213,1.569,1.569,0,0,1,2.082-.94l8.574,3.679,5.31-9.777-7.275-6.045a1.764,1.764,0,0,1-.544-1.839,39.68,39.68,0,0,0,0-21.9,1.764,1.764,0,0,1,.544-1.839l7.275-6.045-5.31-9.777-8.574,3.679a1.533,1.533,0,0,1-1.77-.419A34.448,34.448,0,0,0,67.038,14.543a1.664,1.664,0,0,1-1.228-1.421L64.522,3.4H53.9l-1.288,9.721a1.665,1.665,0,0,1-1.228,1.421A34.448,34.448,0,0,0,33.557,25.493a1.533,1.533,0,0,1-1.77.419l-8.574-3.679L17.9,32.01l7.275,6.045a1.764,1.764,0,0,1,.544,1.839,39.68,39.68,0,0,0,0,21.9,1.764,1.764,0,0,1-.544,1.839L17.9,69.674l5.311,9.777,8.574-3.679a1.533,1.533,0,0,1,1.77.419A34.448,34.448,0,0,0,51.385,87.142a1.664,1.664,0,0,1,1.228,1.421L53.9,98.284H64.522l1.288-9.721a1.665,1.665,0,0,1,1.228-1.421,33.628,33.628,0,0,0,10.593-4.626,1.546,1.546,0,0,1,2.2.55,1.764,1.764,0,0,1-.517,2.341,36.8,36.8,0,0,1-10.489,4.771L67.5,100.221a1.635,1.635,0,0,1-1.584,1.463h-13.4a1.635,1.635,0,0,1-1.584-1.463L49.6,90.178A37.563,37.563,0,0,1,31.98,79.356l-8.858,3.8a1.554,1.554,0,0,1-1.984-.726l-6.7-12.336a1.772,1.772,0,0,1,.4-2.19l7.517-6.246a43.338,43.338,0,0,1,0-21.635l-7.517-6.246a1.772,1.772,0,0,1-.4-2.19l6.7-12.336a1.555,1.555,0,0,1,1.984-.726l8.858,3.8A37.563,37.563,0,0,1,49.6,11.5L50.927,1.462A1.635,1.635,0,0,1,52.511,0h13.4A1.635,1.635,0,0,1,67.5,1.463l1.331,10.043A37.563,37.563,0,0,1,86.444,22.328l8.858-3.8a1.555,1.555,0,0,1,1.984.726l6.7,12.336a1.772,1.772,0,0,1-.4,2.19l-7.517,6.246a43.338,43.338,0,0,1,0,21.635l7.517,6.246a1.772,1.772,0,0,1,.4,2.189ZM56.591,58.93l8-14.452a1.761,1.761,0,0,0-.568-2.328,1.549,1.549,0,0,0-2.19.6l-8,14.452a1.761,1.761,0,0,0,.568,2.328,1.548,1.548,0,0,0,2.19-.6ZM50.345,44.324a1.534,1.534,0,0,0-2.262,0l-5,5.316a1.777,1.777,0,0,0,0,2.4l5,5.316a1.534,1.534,0,0,0,2.262,0,1.777,1.777,0,0,0,0-2.4l-3.87-4.113,3.87-4.113a1.777,1.777,0,0,0,0-2.405ZM69.009,57.858a1.548,1.548,0,0,0,1.131-.5l5-5.316a1.777,1.777,0,0,0,0-2.4l-5-5.316a1.534,1.534,0,0,0-2.262,0,1.777,1.777,0,0,0,0,2.4l3.87,4.113-3.87,4.114a1.718,1.718,0,0,0,1.131,2.9ZM49.85,77.98a25.765,25.765,0,0,0,9.377,1.782c19.76,0,33-21.932,24.657-41.074-6.305-14.46-22.5-20.772-36.107-14.07-17.3,8.52-21.217,33.018-7.384,47.1a1.533,1.533,0,0,0,2.262-.052,1.777,1.777,0,0,0-.049-2.4c-12.2-12.417-8.752-34.037,6.516-41.558,12-5.913,26.3-.344,31.859,12.415S81.3,68.068,69.3,73.981a22.547,22.547,0,0,1-18.35.806A1.575,1.575,0,0,0,48.9,75.8,1.732,1.732,0,0,0,49.85,77.98Z" transform="matrix(0.208, 0.978, -0.978, 0.208, 3196.41, 4487.113)" fill="#0f4c75"/>
      <path id="digital-10" data-name="digital" d="M103.987,70.1l-6.7,12.336a1.555,1.555,0,0,1-1.984.726l-9.863-4.232a1.738,1.738,0,0,1-.885-2.213,1.569,1.569,0,0,1,2.082-.94l8.574,3.679,5.31-9.777-7.275-6.045a1.764,1.764,0,0,1-.544-1.839,39.68,39.68,0,0,0,0-21.9,1.764,1.764,0,0,1,.544-1.839l7.275-6.045-5.31-9.777-8.574,3.679a1.533,1.533,0,0,1-1.77-.419A34.448,34.448,0,0,0,67.038,14.543a1.664,1.664,0,0,1-1.228-1.421L64.522,3.4H53.9l-1.288,9.721a1.665,1.665,0,0,1-1.228,1.421A34.448,34.448,0,0,0,33.557,25.493a1.533,1.533,0,0,1-1.77.419l-8.574-3.679L17.9,32.01l7.275,6.045a1.764,1.764,0,0,1,.544,1.839,39.68,39.68,0,0,0,0,21.9,1.764,1.764,0,0,1-.544,1.839L17.9,69.674l5.311,9.777,8.574-3.679a1.533,1.533,0,0,1,1.77.419A34.448,34.448,0,0,0,51.385,87.142a1.664,1.664,0,0,1,1.228,1.421L53.9,98.284H64.522l1.288-9.721a1.665,1.665,0,0,1,1.228-1.421,33.628,33.628,0,0,0,10.593-4.626,1.546,1.546,0,0,1,2.2.55,1.764,1.764,0,0,1-.517,2.341,36.8,36.8,0,0,1-10.489,4.771L67.5,100.221a1.635,1.635,0,0,1-1.584,1.463h-13.4a1.635,1.635,0,0,1-1.584-1.463L49.6,90.178A37.563,37.563,0,0,1,31.98,79.356l-8.858,3.8a1.554,1.554,0,0,1-1.984-.726l-6.7-12.336a1.772,1.772,0,0,1,.4-2.19l7.517-6.246a43.338,43.338,0,0,1,0-21.635l-7.517-6.246a1.772,1.772,0,0,1-.4-2.19l6.7-12.336a1.555,1.555,0,0,1,1.984-.726l8.858,3.8A37.563,37.563,0,0,1,49.6,11.5L50.927,1.462A1.635,1.635,0,0,1,52.511,0h13.4A1.635,1.635,0,0,1,67.5,1.463l1.331,10.043A37.563,37.563,0,0,1,86.444,22.328l8.858-3.8a1.555,1.555,0,0,1,1.984.726l6.7,12.336a1.772,1.772,0,0,1-.4,2.19l-7.517,6.246a43.338,43.338,0,0,1,0,21.635l7.517,6.246a1.772,1.772,0,0,1,.4,2.189ZM56.591,58.93l8-14.452a1.761,1.761,0,0,0-.568-2.328,1.549,1.549,0,0,0-2.19.6l-8,14.452a1.761,1.761,0,0,0,.568,2.328,1.548,1.548,0,0,0,2.19-.6ZM50.345,44.324a1.534,1.534,0,0,0-2.262,0l-5,5.316a1.777,1.777,0,0,0,0,2.4l5,5.316a1.534,1.534,0,0,0,2.262,0,1.777,1.777,0,0,0,0-2.4l-3.87-4.113,3.87-4.113a1.777,1.777,0,0,0,0-2.405ZM69.009,57.858a1.548,1.548,0,0,0,1.131-.5l5-5.316a1.777,1.777,0,0,0,0-2.4l-5-5.316a1.534,1.534,0,0,0-2.262,0,1.777,1.777,0,0,0,0,2.4l3.87,4.113-3.87,4.114a1.718,1.718,0,0,0,1.131,2.9ZM49.85,77.98a25.765,25.765,0,0,0,9.377,1.782c19.76,0,33-21.932,24.657-41.074-6.305-14.46-22.5-20.772-36.107-14.07-17.3,8.52-21.217,33.018-7.384,47.1a1.533,1.533,0,0,0,2.262-.052,1.777,1.777,0,0,0-.049-2.4c-12.2-12.417-8.752-34.037,6.516-41.558,12-5.913,26.3-.344,31.859,12.415S81.3,68.068,69.3,73.981a22.547,22.547,0,0,1-18.35.806A1.575,1.575,0,0,0,48.9,75.8,1.732,1.732,0,0,0,49.85,77.98Z" transform="translate(2639.353 4060.459) rotate(-60)" fill="#0f4c75"/>
    </g>
    <g id="Group_59" data-name="Group 59" transform="translate(6257.676 41.99) rotate(70)">
      <path id="digital-11" data-name="digital" d="M103.987,70.1l-6.7,12.336a1.555,1.555,0,0,1-1.984.726l-9.863-4.232a1.738,1.738,0,0,1-.885-2.213,1.569,1.569,0,0,1,2.082-.94l8.574,3.679,5.31-9.777-7.275-6.045a1.764,1.764,0,0,1-.544-1.839,39.68,39.68,0,0,0,0-21.9,1.764,1.764,0,0,1,.544-1.839l7.275-6.045-5.31-9.777-8.574,3.679a1.533,1.533,0,0,1-1.77-.419A34.448,34.448,0,0,0,67.038,14.543a1.664,1.664,0,0,1-1.228-1.421L64.522,3.4H53.9l-1.288,9.721a1.665,1.665,0,0,1-1.228,1.421A34.448,34.448,0,0,0,33.557,25.493a1.533,1.533,0,0,1-1.77.419l-8.574-3.679L17.9,32.01l7.275,6.045a1.764,1.764,0,0,1,.544,1.839,39.68,39.68,0,0,0,0,21.9,1.764,1.764,0,0,1-.544,1.839L17.9,69.674l5.311,9.777,8.574-3.679a1.533,1.533,0,0,1,1.77.419A34.448,34.448,0,0,0,51.385,87.142a1.664,1.664,0,0,1,1.228,1.421L53.9,98.284H64.522l1.288-9.721a1.665,1.665,0,0,1,1.228-1.421,33.628,33.628,0,0,0,10.593-4.626,1.546,1.546,0,0,1,2.2.55,1.764,1.764,0,0,1-.517,2.341,36.8,36.8,0,0,1-10.489,4.771L67.5,100.221a1.635,1.635,0,0,1-1.584,1.463h-13.4a1.635,1.635,0,0,1-1.584-1.463L49.6,90.178A37.563,37.563,0,0,1,31.98,79.356l-8.858,3.8a1.554,1.554,0,0,1-1.984-.726l-6.7-12.336a1.772,1.772,0,0,1,.4-2.19l7.517-6.246a43.338,43.338,0,0,1,0-21.635l-7.517-6.246a1.772,1.772,0,0,1-.4-2.19l6.7-12.336a1.555,1.555,0,0,1,1.984-.726l8.858,3.8A37.563,37.563,0,0,1,49.6,11.5L50.927,1.462A1.635,1.635,0,0,1,52.511,0h13.4A1.635,1.635,0,0,1,67.5,1.463l1.331,10.043A37.563,37.563,0,0,1,86.444,22.328l8.858-3.8a1.555,1.555,0,0,1,1.984.726l6.7,12.336a1.772,1.772,0,0,1-.4,2.19l-7.517,6.246a43.338,43.338,0,0,1,0,21.635l7.517,6.246a1.772,1.772,0,0,1,.4,2.189ZM56.591,58.93l8-14.452a1.761,1.761,0,0,0-.568-2.328,1.549,1.549,0,0,0-2.19.6l-8,14.452a1.761,1.761,0,0,0,.568,2.328,1.548,1.548,0,0,0,2.19-.6ZM50.345,44.324a1.534,1.534,0,0,0-2.262,0l-5,5.316a1.777,1.777,0,0,0,0,2.4l5,5.316a1.534,1.534,0,0,0,2.262,0,1.777,1.777,0,0,0,0-2.4l-3.87-4.113,3.87-4.113a1.777,1.777,0,0,0,0-2.405ZM69.009,57.858a1.548,1.548,0,0,0,1.131-.5l5-5.316a1.777,1.777,0,0,0,0-2.4l-5-5.316a1.534,1.534,0,0,0-2.262,0,1.777,1.777,0,0,0,0,2.4l3.87,4.113-3.87,4.114a1.718,1.718,0,0,0,1.131,2.9ZM49.85,77.98a25.765,25.765,0,0,0,9.377,1.782c19.76,0,33-21.932,24.657-41.074-6.305-14.46-22.5-20.772-36.107-14.07-17.3,8.52-21.217,33.018-7.384,47.1a1.533,1.533,0,0,0,2.262-.052,1.777,1.777,0,0,0-.049-2.4c-12.2-12.417-8.752-34.037,6.516-41.558,12-5.913,26.3-.344,31.859,12.415S81.3,68.068,69.3,73.981a22.547,22.547,0,0,1-18.35.806A1.575,1.575,0,0,0,48.9,75.8,1.732,1.732,0,0,0,49.85,77.98Z" transform="translate(2608.778 4283.759)" fill="#0f4c75"/>
      <path id="digital-12" data-name="digital" d="M103.987,70.1l-6.7,12.336a1.555,1.555,0,0,1-1.984.726l-9.863-4.232a1.738,1.738,0,0,1-.885-2.213,1.569,1.569,0,0,1,2.082-.94l8.574,3.679,5.31-9.777-7.275-6.045a1.764,1.764,0,0,1-.544-1.839,39.68,39.68,0,0,0,0-21.9,1.764,1.764,0,0,1,.544-1.839l7.275-6.045-5.31-9.777-8.574,3.679a1.533,1.533,0,0,1-1.77-.419A34.448,34.448,0,0,0,67.038,14.543a1.664,1.664,0,0,1-1.228-1.421L64.522,3.4H53.9l-1.288,9.721a1.665,1.665,0,0,1-1.228,1.421A34.448,34.448,0,0,0,33.557,25.493a1.533,1.533,0,0,1-1.77.419l-8.574-3.679L17.9,32.01l7.275,6.045a1.764,1.764,0,0,1,.544,1.839,39.68,39.68,0,0,0,0,21.9,1.764,1.764,0,0,1-.544,1.839L17.9,69.674l5.311,9.777,8.574-3.679a1.533,1.533,0,0,1,1.77.419A34.448,34.448,0,0,0,51.385,87.142a1.664,1.664,0,0,1,1.228,1.421L53.9,98.284H64.522l1.288-9.721a1.665,1.665,0,0,1,1.228-1.421,33.628,33.628,0,0,0,10.593-4.626,1.546,1.546,0,0,1,2.2.55,1.764,1.764,0,0,1-.517,2.341,36.8,36.8,0,0,1-10.489,4.771L67.5,100.221a1.635,1.635,0,0,1-1.584,1.463h-13.4a1.635,1.635,0,0,1-1.584-1.463L49.6,90.178A37.563,37.563,0,0,1,31.98,79.356l-8.858,3.8a1.554,1.554,0,0,1-1.984-.726l-6.7-12.336a1.772,1.772,0,0,1,.4-2.19l7.517-6.246a43.338,43.338,0,0,1,0-21.635l-7.517-6.246a1.772,1.772,0,0,1-.4-2.19l6.7-12.336a1.555,1.555,0,0,1,1.984-.726l8.858,3.8A37.563,37.563,0,0,1,49.6,11.5L50.927,1.462A1.635,1.635,0,0,1,52.511,0h13.4A1.635,1.635,0,0,1,67.5,1.463l1.331,10.043A37.563,37.563,0,0,1,86.444,22.328l8.858-3.8a1.555,1.555,0,0,1,1.984.726l6.7,12.336a1.772,1.772,0,0,1-.4,2.19l-7.517,6.246a43.338,43.338,0,0,1,0,21.635l7.517,6.246a1.772,1.772,0,0,1,.4,2.189ZM56.591,58.93l8-14.452a1.761,1.761,0,0,0-.568-2.328,1.549,1.549,0,0,0-2.19.6l-8,14.452a1.761,1.761,0,0,0,.568,2.328,1.548,1.548,0,0,0,2.19-.6ZM50.345,44.324a1.534,1.534,0,0,0-2.262,0l-5,5.316a1.777,1.777,0,0,0,0,2.4l5,5.316a1.534,1.534,0,0,0,2.262,0,1.777,1.777,0,0,0,0-2.4l-3.87-4.113,3.87-4.113a1.777,1.777,0,0,0,0-2.405ZM69.009,57.858a1.548,1.548,0,0,0,1.131-.5l5-5.316a1.777,1.777,0,0,0,0-2.4l-5-5.316a1.534,1.534,0,0,0-2.262,0,1.777,1.777,0,0,0,0,2.4l3.87,4.113-3.87,4.114a1.718,1.718,0,0,0,1.131,2.9ZM49.85,77.98a25.765,25.765,0,0,0,9.377,1.782c19.76,0,33-21.932,24.657-41.074-6.305-14.46-22.5-20.772-36.107-14.07-17.3,8.52-21.217,33.018-7.384,47.1a1.533,1.533,0,0,0,2.262-.052,1.777,1.777,0,0,0-.049-2.4c-12.2-12.417-8.752-34.037,6.516-41.558,12-5.913,26.3-.344,31.859,12.415S81.3,68.068,69.3,73.981a22.547,22.547,0,0,1-18.35.806A1.575,1.575,0,0,0,48.9,75.8,1.732,1.732,0,0,0,49.85,77.98Z" transform="translate(2608.778 4283.759)" fill="#0f4c75"/>
      <path id="digital-13" data-name="digital" d="M103.987,70.1l-6.7,12.336a1.555,1.555,0,0,1-1.984.726l-9.863-4.232a1.738,1.738,0,0,1-.885-2.213,1.569,1.569,0,0,1,2.082-.94l8.574,3.679,5.31-9.777-7.275-6.045a1.764,1.764,0,0,1-.544-1.839,39.68,39.68,0,0,0,0-21.9,1.764,1.764,0,0,1,.544-1.839l7.275-6.045-5.31-9.777-8.574,3.679a1.533,1.533,0,0,1-1.77-.419A34.448,34.448,0,0,0,67.038,14.543a1.664,1.664,0,0,1-1.228-1.421L64.522,3.4H53.9l-1.288,9.721a1.665,1.665,0,0,1-1.228,1.421A34.448,34.448,0,0,0,33.557,25.493a1.533,1.533,0,0,1-1.77.419l-8.574-3.679L17.9,32.01l7.275,6.045a1.764,1.764,0,0,1,.544,1.839,39.68,39.68,0,0,0,0,21.9,1.764,1.764,0,0,1-.544,1.839L17.9,69.674l5.311,9.777,8.574-3.679a1.533,1.533,0,0,1,1.77.419A34.448,34.448,0,0,0,51.385,87.142a1.664,1.664,0,0,1,1.228,1.421L53.9,98.284H64.522l1.288-9.721a1.665,1.665,0,0,1,1.228-1.421,33.628,33.628,0,0,0,10.593-4.626,1.546,1.546,0,0,1,2.2.55,1.764,1.764,0,0,1-.517,2.341,36.8,36.8,0,0,1-10.489,4.771L67.5,100.221a1.635,1.635,0,0,1-1.584,1.463h-13.4a1.635,1.635,0,0,1-1.584-1.463L49.6,90.178A37.563,37.563,0,0,1,31.98,79.356l-8.858,3.8a1.554,1.554,0,0,1-1.984-.726l-6.7-12.336a1.772,1.772,0,0,1,.4-2.19l7.517-6.246a43.338,43.338,0,0,1,0-21.635l-7.517-6.246a1.772,1.772,0,0,1-.4-2.19l6.7-12.336a1.555,1.555,0,0,1,1.984-.726l8.858,3.8A37.563,37.563,0,0,1,49.6,11.5L50.927,1.462A1.635,1.635,0,0,1,52.511,0h13.4A1.635,1.635,0,0,1,67.5,1.463l1.331,10.043A37.563,37.563,0,0,1,86.444,22.328l8.858-3.8a1.555,1.555,0,0,1,1.984.726l6.7,12.336a1.772,1.772,0,0,1-.4,2.19l-7.517,6.246a43.338,43.338,0,0,1,0,21.635l7.517,6.246a1.772,1.772,0,0,1,.4,2.189ZM56.591,58.93l8-14.452a1.761,1.761,0,0,0-.568-2.328,1.549,1.549,0,0,0-2.19.6l-8,14.452a1.761,1.761,0,0,0,.568,2.328,1.548,1.548,0,0,0,2.19-.6ZM50.345,44.324a1.534,1.534,0,0,0-2.262,0l-5,5.316a1.777,1.777,0,0,0,0,2.4l5,5.316a1.534,1.534,0,0,0,2.262,0,1.777,1.777,0,0,0,0-2.4l-3.87-4.113,3.87-4.113a1.777,1.777,0,0,0,0-2.405ZM69.009,57.858a1.548,1.548,0,0,0,1.131-.5l5-5.316a1.777,1.777,0,0,0,0-2.4l-5-5.316a1.534,1.534,0,0,0-2.262,0,1.777,1.777,0,0,0,0,2.4l3.87,4.113-3.87,4.114a1.718,1.718,0,0,0,1.131,2.9ZM49.85,77.98a25.765,25.765,0,0,0,9.377,1.782c19.76,0,33-21.932,24.657-41.074-6.305-14.46-22.5-20.772-36.107-14.07-17.3,8.52-21.217,33.018-7.384,47.1a1.533,1.533,0,0,0,2.262-.052,1.777,1.777,0,0,0-.049-2.4c-12.2-12.417-8.752-34.037,6.516-41.558,12-5.913,26.3-.344,31.859,12.415S81.3,68.068,69.3,73.981a22.547,22.547,0,0,1-18.35.806A1.575,1.575,0,0,0,48.9,75.8,1.732,1.732,0,0,0,49.85,77.98Z" transform="translate(2608.778 4283.759)" fill="#0f4c75"/>
      <path id="digital-14" data-name="digital" d="M103.987,70.1l-6.7,12.336a1.555,1.555,0,0,1-1.984.726l-9.863-4.232a1.738,1.738,0,0,1-.885-2.213,1.569,1.569,0,0,1,2.082-.94l8.574,3.679,5.31-9.777-7.275-6.045a1.764,1.764,0,0,1-.544-1.839,39.68,39.68,0,0,0,0-21.9,1.764,1.764,0,0,1,.544-1.839l7.275-6.045-5.31-9.777-8.574,3.679a1.533,1.533,0,0,1-1.77-.419A34.448,34.448,0,0,0,67.038,14.543a1.664,1.664,0,0,1-1.228-1.421L64.522,3.4H53.9l-1.288,9.721a1.665,1.665,0,0,1-1.228,1.421A34.448,34.448,0,0,0,33.557,25.493a1.533,1.533,0,0,1-1.77.419l-8.574-3.679L17.9,32.01l7.275,6.045a1.764,1.764,0,0,1,.544,1.839,39.68,39.68,0,0,0,0,21.9,1.764,1.764,0,0,1-.544,1.839L17.9,69.674l5.311,9.777,8.574-3.679a1.533,1.533,0,0,1,1.77.419A34.448,34.448,0,0,0,51.385,87.142a1.664,1.664,0,0,1,1.228,1.421L53.9,98.284H64.522l1.288-9.721a1.665,1.665,0,0,1,1.228-1.421,33.628,33.628,0,0,0,10.593-4.626,1.546,1.546,0,0,1,2.2.55,1.764,1.764,0,0,1-.517,2.341,36.8,36.8,0,0,1-10.489,4.771L67.5,100.221a1.635,1.635,0,0,1-1.584,1.463h-13.4a1.635,1.635,0,0,1-1.584-1.463L49.6,90.178A37.563,37.563,0,0,1,31.98,79.356l-8.858,3.8a1.554,1.554,0,0,1-1.984-.726l-6.7-12.336a1.772,1.772,0,0,1,.4-2.19l7.517-6.246a43.338,43.338,0,0,1,0-21.635l-7.517-6.246a1.772,1.772,0,0,1-.4-2.19l6.7-12.336a1.555,1.555,0,0,1,1.984-.726l8.858,3.8A37.563,37.563,0,0,1,49.6,11.5L50.927,1.462A1.635,1.635,0,0,1,52.511,0h13.4A1.635,1.635,0,0,1,67.5,1.463l1.331,10.043A37.563,37.563,0,0,1,86.444,22.328l8.858-3.8a1.555,1.555,0,0,1,1.984.726l6.7,12.336a1.772,1.772,0,0,1-.4,2.19l-7.517,6.246a43.338,43.338,0,0,1,0,21.635l7.517,6.246a1.772,1.772,0,0,1,.4,2.189ZM56.591,58.93l8-14.452a1.761,1.761,0,0,0-.568-2.328,1.549,1.549,0,0,0-2.19.6l-8,14.452a1.761,1.761,0,0,0,.568,2.328,1.548,1.548,0,0,0,2.19-.6ZM50.345,44.324a1.534,1.534,0,0,0-2.262,0l-5,5.316a1.777,1.777,0,0,0,0,2.4l5,5.316a1.534,1.534,0,0,0,2.262,0,1.777,1.777,0,0,0,0-2.4l-3.87-4.113,3.87-4.113a1.777,1.777,0,0,0,0-2.405ZM69.009,57.858a1.548,1.548,0,0,0,1.131-.5l5-5.316a1.777,1.777,0,0,0,0-2.4l-5-5.316a1.534,1.534,0,0,0-2.262,0,1.777,1.777,0,0,0,0,2.4l3.87,4.113-3.87,4.114a1.718,1.718,0,0,0,1.131,2.9ZM49.85,77.98a25.765,25.765,0,0,0,9.377,1.782c19.76,0,33-21.932,24.657-41.074-6.305-14.46-22.5-20.772-36.107-14.07-17.3,8.52-21.217,33.018-7.384,47.1a1.533,1.533,0,0,0,2.262-.052,1.777,1.777,0,0,0-.049-2.4c-12.2-12.417-8.752-34.037,6.516-41.558,12-5.913,26.3-.344,31.859,12.415S81.3,68.068,69.3,73.981a22.547,22.547,0,0,1-18.35.806A1.575,1.575,0,0,0,48.9,75.8,1.732,1.732,0,0,0,49.85,77.98Z" transform="translate(2608.778 4283.759)" fill="#0f4c75"/>
      <path id="digital-15" data-name="digital" d="M103.987,70.1l-6.7,12.336a1.555,1.555,0,0,1-1.984.726l-9.863-4.232a1.738,1.738,0,0,1-.885-2.213,1.569,1.569,0,0,1,2.082-.94l8.574,3.679,5.31-9.777-7.275-6.045a1.764,1.764,0,0,1-.544-1.839,39.68,39.68,0,0,0,0-21.9,1.764,1.764,0,0,1,.544-1.839l7.275-6.045-5.31-9.777-8.574,3.679a1.533,1.533,0,0,1-1.77-.419A34.448,34.448,0,0,0,67.038,14.543a1.664,1.664,0,0,1-1.228-1.421L64.522,3.4H53.9l-1.288,9.721a1.665,1.665,0,0,1-1.228,1.421A34.448,34.448,0,0,0,33.557,25.493a1.533,1.533,0,0,1-1.77.419l-8.574-3.679L17.9,32.01l7.275,6.045a1.764,1.764,0,0,1,.544,1.839,39.68,39.68,0,0,0,0,21.9,1.764,1.764,0,0,1-.544,1.839L17.9,69.674l5.311,9.777,8.574-3.679a1.533,1.533,0,0,1,1.77.419A34.448,34.448,0,0,0,51.385,87.142a1.664,1.664,0,0,1,1.228,1.421L53.9,98.284H64.522l1.288-9.721a1.665,1.665,0,0,1,1.228-1.421,33.628,33.628,0,0,0,10.593-4.626,1.546,1.546,0,0,1,2.2.55,1.764,1.764,0,0,1-.517,2.341,36.8,36.8,0,0,1-10.489,4.771L67.5,100.221a1.635,1.635,0,0,1-1.584,1.463h-13.4a1.635,1.635,0,0,1-1.584-1.463L49.6,90.178A37.563,37.563,0,0,1,31.98,79.356l-8.858,3.8a1.554,1.554,0,0,1-1.984-.726l-6.7-12.336a1.772,1.772,0,0,1,.4-2.19l7.517-6.246a43.338,43.338,0,0,1,0-21.635l-7.517-6.246a1.772,1.772,0,0,1-.4-2.19l6.7-12.336a1.555,1.555,0,0,1,1.984-.726l8.858,3.8A37.563,37.563,0,0,1,49.6,11.5L50.927,1.462A1.635,1.635,0,0,1,52.511,0h13.4A1.635,1.635,0,0,1,67.5,1.463l1.331,10.043A37.563,37.563,0,0,1,86.444,22.328l8.858-3.8a1.555,1.555,0,0,1,1.984.726l6.7,12.336a1.772,1.772,0,0,1-.4,2.19l-7.517,6.246a43.338,43.338,0,0,1,0,21.635l7.517,6.246a1.772,1.772,0,0,1,.4,2.189ZM56.591,58.93l8-14.452a1.761,1.761,0,0,0-.568-2.328,1.549,1.549,0,0,0-2.19.6l-8,14.452a1.761,1.761,0,0,0,.568,2.328,1.548,1.548,0,0,0,2.19-.6ZM50.345,44.324a1.534,1.534,0,0,0-2.262,0l-5,5.316a1.777,1.777,0,0,0,0,2.4l5,5.316a1.534,1.534,0,0,0,2.262,0,1.777,1.777,0,0,0,0-2.4l-3.87-4.113,3.87-4.113a1.777,1.777,0,0,0,0-2.405ZM69.009,57.858a1.548,1.548,0,0,0,1.131-.5l5-5.316a1.777,1.777,0,0,0,0-2.4l-5-5.316a1.534,1.534,0,0,0-2.262,0,1.777,1.777,0,0,0,0,2.4l3.87,4.113-3.87,4.114a1.718,1.718,0,0,0,1.131,2.9ZM49.85,77.98a25.765,25.765,0,0,0,9.377,1.782c19.76,0,33-21.932,24.657-41.074-6.305-14.46-22.5-20.772-36.107-14.07-17.3,8.52-21.217,33.018-7.384,47.1a1.533,1.533,0,0,0,2.262-.052,1.777,1.777,0,0,0-.049-2.4c-12.2-12.417-8.752-34.037,6.516-41.558,12-5.913,26.3-.344,31.859,12.415S81.3,68.068,69.3,73.981a22.547,22.547,0,0,1-18.35.806A1.575,1.575,0,0,0,48.9,75.8,1.732,1.732,0,0,0,49.85,77.98Z" transform="translate(2608.778 4283.759)" fill="#0f4c75"/>
    </g>
  </g>
</svg>
