<svg xmlns="http://www.w3.org/2000/svg" width="1232.911" height="1026.923" viewBox="0 0 1232.911 1026.923">
  <g id="Group_74" data-name="Group 74" transform="translate(-4525.881 -1154.842)">
    <g id="Group_69" data-name="Group 69" transform="translate(161 7.569)">
      <g id="binary-code" transform="translate(5078.319 1575.833)">
        <path id="Path_48" data-name="Path 48" d="M173,400.676c0-9.891-10.1-17.933-22.5-17.933S128,390.785,128,400.676v32.412c0,9.891,10.09,17.933,22.5,17.933s22.5-8.042,22.5-17.933c0,29.293,0,41.843-22.5,41.843-28.95,0-52.5-18.77-52.5-41.843V400.676c0-23.073,23.55-41.843,52.5-41.843C173,358.833,173,370.788,173,400.676Z" transform="translate(2.362 -358.833)" fill="none"/>
        <path id="Path_49" data-name="Path 49" d="M203,400.676v32.412c0,23.073-23.55,41.843-52.5,41.843,12.4,0,22.5-18.77,22.5-41.843V400.676c0-23.073-10.1-41.843-22.5-41.843C179.45,358.833,203,377.6,203,400.676Z" transform="translate(4.08 -358.833)" fill="none"/>
        <path id="Path_50" data-name="Path 50" d="M489.5,358.833h-30l15,23.91v80.232c0,6.6,6.716,11.955,15,11.955s15-5.353,15-11.955V370.788C504.5,364.186,497.784,358.833,489.5,358.833Z" transform="translate(14.973 -358.833)" fill="none"/>
        <path id="Path_51" data-name="Path 51" d="M459.5,358.833a15,15,0,0,0,0,30h15v-15A15,15,0,0,0,459.5,358.833Z" transform="translate(14.973 -354.253)" fill="none"/>
        <path id="Path_52" data-name="Path 52" d="M271,358.833H241l15,23.91v80.232c0,6.6,6.716,11.955,15,11.955s15-5.353,15-11.955V370.788C286,364.186,279.284,358.833,271,358.833Z" transform="translate(7.217 -358.833)" fill="none"/>
        <path id="Path_53" data-name="Path 53" d="M241,358.833a15,15,0,0,0,0,30h15v-15A15,15,0,0,0,241,358.833Z" transform="translate(6.428 -354.253)" fill="none"/>
        <path id="Path_54" data-name="Path 54" d="M52.5,358.833h-30l15,19.154V442.26c0,5.289,6.716,9.577,15,9.577s15-4.288,15-9.577V368.41C67.5,363.121,60.784,358.833,52.5,358.833Z" transform="translate(-22.5 -335.739)" fill="none"/>
        <path id="Path_56" data-name="Path 56" d="M391.5,400.676c0-9.891-10.1-17.933-22.5-17.933s-22.5,8.042-22.5,17.933v32.412c0,9.891,10.09,17.933,22.5,17.933s22.5-8.042,22.5-17.933c0,29.293,0,41.843-22.5,41.843-28.95,0-52.5-18.77-52.5-41.843V400.676c0-23.073,23.55-41.843,52.5-41.843C391.5,358.833,391.5,370.788,391.5,400.676Z" transform="translate(10.696 -358.833)" fill="none"/>
        <path id="Path_57" data-name="Path 57" d="M421.5,400.676v32.412c0,23.073-23.55,41.843-52.5,41.843,12.4,0,22.5-18.77,22.5-41.843V400.676c0-23.073-10.1-41.843-22.5-41.843C397.95,358.833,421.5,377.6,421.5,400.676Z" transform="translate(16.158 -358.833)" fill="none"/>
        <path id="Path_72" data-name="Path 72" d="M254.91,351.333H234.1c-8.6,0-15.6,6.431-15.6,14.337s7,14.337,15.6,14.337h5.2v59.366c0,7.906,7,14.337,15.6,14.337s15.6-6.431,15.6-14.337v-73.7C270.515,357.765,263.514,351.333,254.91,351.333Zm5.2,88.039a5.22,5.22,0,0,1-10.4,0V375.228a5,5,0,0,0-5.2-4.779H234.1a4.8,4.8,0,1,1,0-9.558H254.91a5.009,5.009,0,0,1,5.2,4.779Z" transform="translate(-40.254 -326.111)" fill="#0f4c75"/>
        <path id="Path_73" data-name="Path 73" d="M129.7,351.333c-21.616,0-39.2,16.481-39.2,36.738v24.9c0,20.257,17.586,36.738,39.2,36.738s39.2-16.481,39.2-36.738v-24.9C168.9,367.814,151.318,351.333,129.7,351.333Zm29.4,61.638c0,15.193-13.189,27.553-29.4,27.553s-29.4-12.361-29.4-27.553v-24.9c0-15.193,13.189-27.553,29.4-27.553s29.4,12.36,29.4,27.553Z" transform="translate(2.061 -326.111)" fill="#0f4c75"/>
        <path id="Path_74" data-name="Path 74" d="M139.944,381.333c-10.721,0-19.444,7.587-19.444,16.912V421.17c0,9.325,8.723,16.912,19.444,16.912s19.444-7.587,19.444-16.912V398.245c0-9.325-8.723-16.912-19.444-16.912Zm9.722,39.837c0,4.662-4.361,8.456-9.722,8.456s-9.722-3.793-9.722-8.456V398.245c0-4.663,4.361-8.456,9.722-8.456s9.722,3.793,9.722,8.456Z" transform="translate(-8.509 -334.827)" fill="#0f4c75"/>
        <path id="Path_75" data-name="Path 75" d="M472.119,351.333H452.051a14.641,14.641,0,1,0,0,29.27h5.017v60.6a15.057,15.057,0,0,0,30.1,0V365.968A14.864,14.864,0,0,0,472.119,351.333Zm5.017,89.869a5.019,5.019,0,0,1-10.034,0V375.724a4.949,4.949,0,0,0-5.017-4.878H452.051a4.88,4.88,0,1,1,0-9.757h20.068a4.954,4.954,0,0,1,5.017,4.878Z" transform="translate(-97.91 -328.239)" fill="#0f4c75"/>
        <path id="Path_76" data-name="Path 76" d="M35.745,351.333H15.319C6.873,351.333,0,357.513,0,365.11s6.873,13.777,15.319,13.777h5.106v57.046c0,7.6,6.873,13.777,15.319,13.777s15.319-6.18,15.319-13.777V365.11C51.064,357.514,44.191,351.333,35.745,351.333Zm5.106,84.6a4.875,4.875,0,0,1-5.106,4.592,4.875,4.875,0,0,1-5.106-4.592V374.294a4.87,4.87,0,0,0-5.106-4.592H15.319a4.618,4.618,0,1,1,0-9.184H35.745a4.875,4.875,0,0,1,5.106,4.592Z" transform="translate(19.681 -326.111)" fill="#0f4c75"/>
        <path id="Path_77" data-name="Path 77" d="M350.309,351.333c-22.778,0-41.309,16.481-41.309,36.738v24.9c0,20.257,18.531,36.738,41.309,36.738s41.309-16.481,41.309-36.738v-24.9C391.618,367.814,373.087,351.333,350.309,351.333Zm30.982,61.638c0,15.193-13.9,27.553-30.982,27.553s-30.982-12.361-30.982-27.553v-24.9c0-15.193,13.9-27.553,30.982-27.553s30.982,12.36,30.982,27.553Z" transform="translate(-55.237 -322.111)" fill="#0f4c75"/>
        <path id="Path_78" data-name="Path 78" d="M358.586,381.333c-10.8,0-19.586,7.854-19.586,17.508v23.733c0,9.654,8.786,17.508,19.586,17.508s19.586-7.854,19.586-17.508V398.841C378.172,389.188,369.386,381.333,358.586,381.333Zm9.793,41.241c0,4.827-4.393,8.754-9.793,8.754s-9.793-3.927-9.793-8.754V398.841c0-4.827,4.393-8.754,9.793-8.754s9.793,3.927,9.793,8.754Z" transform="translate(-63.291 -332.483)" fill="#0f4c75"/>
      </g>
    </g>
    <g id="Group_70" data-name="Group 70" transform="translate(302.142 -1126.388) rotate(8)">
      <g id="binary-code-2" data-name="binary-code" transform="translate(5078.319 1575.833)">
        <path id="Path_48-2" data-name="Path 48" d="M173,400.676c0-9.891-10.1-17.933-22.5-17.933S128,390.785,128,400.676v32.412c0,9.891,10.09,17.933,22.5,17.933s22.5-8.042,22.5-17.933c0,29.293,0,41.843-22.5,41.843-28.95,0-52.5-18.77-52.5-41.843V400.676c0-23.073,23.55-41.843,52.5-41.843C173,358.833,173,370.788,173,400.676Z" transform="translate(2.362 -358.833)" fill="none"/>
        <path id="Path_49-2" data-name="Path 49" d="M203,400.676v32.412c0,23.073-23.55,41.843-52.5,41.843,12.4,0,22.5-18.77,22.5-41.843V400.676c0-23.073-10.1-41.843-22.5-41.843C179.45,358.833,203,377.6,203,400.676Z" transform="translate(4.08 -358.833)" fill="none"/>
        <path id="Path_50-2" data-name="Path 50" d="M489.5,358.833h-30l15,23.91v80.232c0,6.6,6.716,11.955,15,11.955s15-5.353,15-11.955V370.788C504.5,364.186,497.784,358.833,489.5,358.833Z" transform="translate(14.973 -358.833)" fill="none"/>
        <path id="Path_51-2" data-name="Path 51" d="M459.5,358.833a15,15,0,0,0,0,30h15v-15A15,15,0,0,0,459.5,358.833Z" transform="translate(14.973 -354.253)" fill="none"/>
        <path id="Path_52-2" data-name="Path 52" d="M271,358.833H241l15,23.91v80.232c0,6.6,6.716,11.955,15,11.955s15-5.353,15-11.955V370.788C286,364.186,279.284,358.833,271,358.833Z" transform="translate(7.217 -358.833)" fill="none"/>
        <path id="Path_53-2" data-name="Path 53" d="M241,358.833a15,15,0,0,0,0,30h15v-15A15,15,0,0,0,241,358.833Z" transform="translate(6.428 -354.253)" fill="none"/>
        <path id="Path_54-2" data-name="Path 54" d="M52.5,358.833h-30l15,19.154V442.26c0,5.289,6.716,9.577,15,9.577s15-4.288,15-9.577V368.41C67.5,363.121,60.784,358.833,52.5,358.833Z" transform="translate(-22.5 -335.739)" fill="none"/>
        <path id="Path_56-2" data-name="Path 56" d="M391.5,400.676c0-9.891-10.1-17.933-22.5-17.933s-22.5,8.042-22.5,17.933v32.412c0,9.891,10.09,17.933,22.5,17.933s22.5-8.042,22.5-17.933c0,29.293,0,41.843-22.5,41.843-28.95,0-52.5-18.77-52.5-41.843V400.676c0-23.073,23.55-41.843,52.5-41.843C391.5,358.833,391.5,370.788,391.5,400.676Z" transform="translate(10.696 -358.833)" fill="none"/>
        <path id="Path_57-2" data-name="Path 57" d="M421.5,400.676v32.412c0,23.073-23.55,41.843-52.5,41.843,12.4,0,22.5-18.77,22.5-41.843V400.676c0-23.073-10.1-41.843-22.5-41.843C397.95,358.833,421.5,377.6,421.5,400.676Z" transform="translate(16.158 -358.833)" fill="none"/>
        <path id="Path_72-2" data-name="Path 72" d="M254.91,351.333H234.1c-8.6,0-15.6,6.431-15.6,14.337s7,14.337,15.6,14.337h5.2v59.366c0,7.906,7,14.337,15.6,14.337s15.6-6.431,15.6-14.337v-73.7C270.515,357.765,263.514,351.333,254.91,351.333Zm5.2,88.039a5.22,5.22,0,0,1-10.4,0V375.228a5,5,0,0,0-5.2-4.779H234.1a4.8,4.8,0,1,1,0-9.558H254.91a5.009,5.009,0,0,1,5.2,4.779Z" transform="translate(-40.254 -326.111)" fill="#0f4c75"/>
        <path id="Path_73-2" data-name="Path 73" d="M129.7,351.333c-21.616,0-39.2,16.481-39.2,36.738v24.9c0,20.257,17.586,36.738,39.2,36.738s39.2-16.481,39.2-36.738v-24.9C168.9,367.814,151.318,351.333,129.7,351.333Zm29.4,61.638c0,15.193-13.189,27.553-29.4,27.553s-29.4-12.361-29.4-27.553v-24.9c0-15.193,13.189-27.553,29.4-27.553s29.4,12.36,29.4,27.553Z" transform="translate(2.061 -326.111)" fill="#0f4c75"/>
        <path id="Path_74-2" data-name="Path 74" d="M139.944,381.333c-10.721,0-19.444,7.587-19.444,16.912V421.17c0,9.325,8.723,16.912,19.444,16.912s19.444-7.587,19.444-16.912V398.245c0-9.325-8.723-16.912-19.444-16.912Zm9.722,39.837c0,4.662-4.361,8.456-9.722,8.456s-9.722-3.793-9.722-8.456V398.245c0-4.663,4.361-8.456,9.722-8.456s9.722,3.793,9.722,8.456Z" transform="translate(-8.509 -334.827)" fill="#0f4c75"/>
        <path id="Path_75-2" data-name="Path 75" d="M472.119,351.333H452.051a14.641,14.641,0,1,0,0,29.27h5.017v60.6a15.057,15.057,0,0,0,30.1,0V365.968A14.864,14.864,0,0,0,472.119,351.333Zm5.017,89.869a5.019,5.019,0,0,1-10.034,0V375.724a4.949,4.949,0,0,0-5.017-4.878H452.051a4.88,4.88,0,1,1,0-9.757h20.068a4.954,4.954,0,0,1,5.017,4.878Z" transform="translate(-97.91 -328.239)" fill="#0f4c75"/>
        <path id="Path_76-2" data-name="Path 76" d="M35.745,351.333H15.319C6.873,351.333,0,357.513,0,365.11s6.873,13.777,15.319,13.777h5.106v57.046c0,7.6,6.873,13.777,15.319,13.777s15.319-6.18,15.319-13.777V365.11C51.064,357.514,44.191,351.333,35.745,351.333Zm5.106,84.6a4.875,4.875,0,0,1-5.106,4.592,4.875,4.875,0,0,1-5.106-4.592V374.294a4.87,4.87,0,0,0-5.106-4.592H15.319a4.618,4.618,0,1,1,0-9.184H35.745a4.875,4.875,0,0,1,5.106,4.592Z" transform="translate(19.681 -326.111)" fill="#0f4c75"/>
        <path id="Path_77-2" data-name="Path 77" d="M350.309,351.333c-22.778,0-41.309,16.481-41.309,36.738v24.9c0,20.257,18.531,36.738,41.309,36.738s41.309-16.481,41.309-36.738v-24.9C391.618,367.814,373.087,351.333,350.309,351.333Zm30.982,61.638c0,15.193-13.9,27.553-30.982,27.553s-30.982-12.361-30.982-27.553v-24.9c0-15.193,13.9-27.553,30.982-27.553s30.982,12.36,30.982,27.553Z" transform="translate(-55.237 -322.111)" fill="#0f4c75"/>
        <path id="Path_78-2" data-name="Path 78" d="M358.586,381.333c-10.8,0-19.586,7.854-19.586,17.508v23.733c0,9.654,8.786,17.508,19.586,17.508s19.586-7.854,19.586-17.508V398.841C378.172,389.188,369.386,381.333,358.586,381.333Zm9.793,41.241c0,4.827-4.393,8.754-9.793,8.754s-9.793-3.927-9.793-8.754V398.841c0-4.827,4.393-8.754,9.793-8.754s9.793,3.927,9.793,8.754Z" transform="translate(-63.291 -332.483)" fill="#0f4c75"/>
      </g>
    </g>
    <g id="Group_71" data-name="Group 71" transform="matrix(0.995, -0.105, 0.105, 0.995, -66.146, 1024.53)">
      <g id="binary-code-3" data-name="binary-code" transform="translate(5078.319 1575.833)">
        <path id="Path_48-3" data-name="Path 48" d="M173,400.676c0-9.891-10.1-17.933-22.5-17.933S128,390.785,128,400.676v32.412c0,9.891,10.09,17.933,22.5,17.933s22.5-8.042,22.5-17.933c0,29.293,0,41.843-22.5,41.843-28.95,0-52.5-18.77-52.5-41.843V400.676c0-23.073,23.55-41.843,52.5-41.843C173,358.833,173,370.788,173,400.676Z" transform="translate(2.362 -358.833)" fill="none"/>
        <path id="Path_49-3" data-name="Path 49" d="M203,400.676v32.412c0,23.073-23.55,41.843-52.5,41.843,12.4,0,22.5-18.77,22.5-41.843V400.676c0-23.073-10.1-41.843-22.5-41.843C179.45,358.833,203,377.6,203,400.676Z" transform="translate(4.08 -358.833)" fill="none"/>
        <path id="Path_50-3" data-name="Path 50" d="M489.5,358.833h-30l15,23.91v80.232c0,6.6,6.716,11.955,15,11.955s15-5.353,15-11.955V370.788C504.5,364.186,497.784,358.833,489.5,358.833Z" transform="translate(14.973 -358.833)" fill="none"/>
        <path id="Path_51-3" data-name="Path 51" d="M459.5,358.833a15,15,0,0,0,0,30h15v-15A15,15,0,0,0,459.5,358.833Z" transform="translate(14.973 -354.253)" fill="none"/>
        <path id="Path_52-3" data-name="Path 52" d="M271,358.833H241l15,23.91v80.232c0,6.6,6.716,11.955,15,11.955s15-5.353,15-11.955V370.788C286,364.186,279.284,358.833,271,358.833Z" transform="translate(7.217 -358.833)" fill="none"/>
        <path id="Path_53-3" data-name="Path 53" d="M241,358.833a15,15,0,0,0,0,30h15v-15A15,15,0,0,0,241,358.833Z" transform="translate(6.428 -354.253)" fill="none"/>
        <path id="Path_54-3" data-name="Path 54" d="M52.5,358.833h-30l15,19.154V442.26c0,5.289,6.716,9.577,15,9.577s15-4.288,15-9.577V368.41C67.5,363.121,60.784,358.833,52.5,358.833Z" transform="translate(-22.5 -335.739)" fill="none"/>
        <path id="Path_56-3" data-name="Path 56" d="M391.5,400.676c0-9.891-10.1-17.933-22.5-17.933s-22.5,8.042-22.5,17.933v32.412c0,9.891,10.09,17.933,22.5,17.933s22.5-8.042,22.5-17.933c0,29.293,0,41.843-22.5,41.843-28.95,0-52.5-18.77-52.5-41.843V400.676c0-23.073,23.55-41.843,52.5-41.843C391.5,358.833,391.5,370.788,391.5,400.676Z" transform="translate(10.696 -358.833)" fill="none"/>
        <path id="Path_57-3" data-name="Path 57" d="M421.5,400.676v32.412c0,23.073-23.55,41.843-52.5,41.843,12.4,0,22.5-18.77,22.5-41.843V400.676c0-23.073-10.1-41.843-22.5-41.843C397.95,358.833,421.5,377.6,421.5,400.676Z" transform="translate(16.158 -358.833)" fill="none"/>
        <path id="Path_72-3" data-name="Path 72" d="M254.91,351.333H234.1c-8.6,0-15.6,6.431-15.6,14.337s7,14.337,15.6,14.337h5.2v59.366c0,7.906,7,14.337,15.6,14.337s15.6-6.431,15.6-14.337v-73.7C270.515,357.765,263.514,351.333,254.91,351.333Zm5.2,88.039a5.22,5.22,0,0,1-10.4,0V375.228a5,5,0,0,0-5.2-4.779H234.1a4.8,4.8,0,1,1,0-9.558H254.91a5.009,5.009,0,0,1,5.2,4.779Z" transform="translate(-40.254 -326.111)" fill="#0f4c75"/>
        <path id="Path_73-3" data-name="Path 73" d="M129.7,351.333c-21.616,0-39.2,16.481-39.2,36.738v24.9c0,20.257,17.586,36.738,39.2,36.738s39.2-16.481,39.2-36.738v-24.9C168.9,367.814,151.318,351.333,129.7,351.333Zm29.4,61.638c0,15.193-13.189,27.553-29.4,27.553s-29.4-12.361-29.4-27.553v-24.9c0-15.193,13.189-27.553,29.4-27.553s29.4,12.36,29.4,27.553Z" transform="translate(2.061 -326.111)" fill="#0f4c75"/>
        <path id="Path_74-3" data-name="Path 74" d="M139.944,381.333c-10.721,0-19.444,7.587-19.444,16.912V421.17c0,9.325,8.723,16.912,19.444,16.912s19.444-7.587,19.444-16.912V398.245c0-9.325-8.723-16.912-19.444-16.912Zm9.722,39.837c0,4.662-4.361,8.456-9.722,8.456s-9.722-3.793-9.722-8.456V398.245c0-4.663,4.361-8.456,9.722-8.456s9.722,3.793,9.722,8.456Z" transform="translate(-8.509 -334.827)" fill="#0f4c75"/>
        <path id="Path_75-3" data-name="Path 75" d="M472.119,351.333H452.051a14.641,14.641,0,1,0,0,29.27h5.017v60.6a15.057,15.057,0,0,0,30.1,0V365.968A14.864,14.864,0,0,0,472.119,351.333Zm5.017,89.869a5.019,5.019,0,0,1-10.034,0V375.724a4.949,4.949,0,0,0-5.017-4.878H452.051a4.88,4.88,0,1,1,0-9.757h20.068a4.954,4.954,0,0,1,5.017,4.878Z" transform="translate(-97.91 -328.239)" fill="#0f4c75"/>
        <path id="Path_76-3" data-name="Path 76" d="M35.745,351.333H15.319C6.873,351.333,0,357.513,0,365.11s6.873,13.777,15.319,13.777h5.106v57.046c0,7.6,6.873,13.777,15.319,13.777s15.319-6.18,15.319-13.777V365.11C51.064,357.514,44.191,351.333,35.745,351.333Zm5.106,84.6a4.875,4.875,0,0,1-5.106,4.592,4.875,4.875,0,0,1-5.106-4.592V374.294a4.87,4.87,0,0,0-5.106-4.592H15.319a4.618,4.618,0,1,1,0-9.184H35.745a4.875,4.875,0,0,1,5.106,4.592Z" transform="translate(19.681 -326.111)" fill="#0f4c75"/>
        <path id="Path_77-3" data-name="Path 77" d="M350.309,351.333c-22.778,0-41.309,16.481-41.309,36.738v24.9c0,20.257,18.531,36.738,41.309,36.738s41.309-16.481,41.309-36.738v-24.9C391.618,367.814,373.087,351.333,350.309,351.333Zm30.982,61.638c0,15.193-13.9,27.553-30.982,27.553s-30.982-12.361-30.982-27.553v-24.9c0-15.193,13.9-27.553,30.982-27.553s30.982,12.36,30.982,27.553Z" transform="translate(-55.237 -322.111)" fill="#0f4c75"/>
        <path id="Path_78-3" data-name="Path 78" d="M358.586,381.333c-10.8,0-19.586,7.854-19.586,17.508v23.733c0,9.654,8.786,17.508,19.586,17.508s19.586-7.854,19.586-17.508V398.841C378.172,389.188,369.386,381.333,358.586,381.333Zm9.793,41.241c0,4.827-4.393,8.754-9.793,8.754s-9.793-3.927-9.793-8.754V398.841c0-4.827,4.393-8.754,9.793-8.754s9.793,3.927,9.793,8.754Z" transform="translate(-63.291 -332.483)" fill="#0f4c75"/>
      </g>
    </g>
    <g id="Group_72" data-name="Group 72" transform="translate(-308.39 -308.755) rotate(7)">
      <g id="binary-code-4" data-name="binary-code" transform="translate(5078.319 1575.833)">
        <path id="Path_48-4" data-name="Path 48" d="M173,400.676c0-9.891-10.1-17.933-22.5-17.933S128,390.785,128,400.676v32.412c0,9.891,10.09,17.933,22.5,17.933s22.5-8.042,22.5-17.933c0,29.293,0,41.843-22.5,41.843-28.95,0-52.5-18.77-52.5-41.843V400.676c0-23.073,23.55-41.843,52.5-41.843C173,358.833,173,370.788,173,400.676Z" transform="translate(2.362 -358.833)" fill="none"/>
        <path id="Path_49-4" data-name="Path 49" d="M203,400.676v32.412c0,23.073-23.55,41.843-52.5,41.843,12.4,0,22.5-18.77,22.5-41.843V400.676c0-23.073-10.1-41.843-22.5-41.843C179.45,358.833,203,377.6,203,400.676Z" transform="translate(4.08 -358.833)" fill="none"/>
        <path id="Path_50-4" data-name="Path 50" d="M489.5,358.833h-30l15,23.91v80.232c0,6.6,6.716,11.955,15,11.955s15-5.353,15-11.955V370.788C504.5,364.186,497.784,358.833,489.5,358.833Z" transform="translate(14.973 -358.833)" fill="none"/>
        <path id="Path_51-4" data-name="Path 51" d="M459.5,358.833a15,15,0,0,0,0,30h15v-15A15,15,0,0,0,459.5,358.833Z" transform="translate(14.973 -354.253)" fill="none"/>
        <path id="Path_52-4" data-name="Path 52" d="M271,358.833H241l15,23.91v80.232c0,6.6,6.716,11.955,15,11.955s15-5.353,15-11.955V370.788C286,364.186,279.284,358.833,271,358.833Z" transform="translate(7.217 -358.833)" fill="none"/>
        <path id="Path_53-4" data-name="Path 53" d="M241,358.833a15,15,0,0,0,0,30h15v-15A15,15,0,0,0,241,358.833Z" transform="translate(6.428 -354.253)" fill="none"/>
        <path id="Path_54-4" data-name="Path 54" d="M52.5,358.833h-30l15,19.154V442.26c0,5.289,6.716,9.577,15,9.577s15-4.288,15-9.577V368.41C67.5,363.121,60.784,358.833,52.5,358.833Z" transform="translate(-22.5 -335.739)" fill="none"/>
        <path id="Path_56-4" data-name="Path 56" d="M391.5,400.676c0-9.891-10.1-17.933-22.5-17.933s-22.5,8.042-22.5,17.933v32.412c0,9.891,10.09,17.933,22.5,17.933s22.5-8.042,22.5-17.933c0,29.293,0,41.843-22.5,41.843-28.95,0-52.5-18.77-52.5-41.843V400.676c0-23.073,23.55-41.843,52.5-41.843C391.5,358.833,391.5,370.788,391.5,400.676Z" transform="translate(10.696 -358.833)" fill="none"/>
        <path id="Path_57-4" data-name="Path 57" d="M421.5,400.676v32.412c0,23.073-23.55,41.843-52.5,41.843,12.4,0,22.5-18.77,22.5-41.843V400.676c0-23.073-10.1-41.843-22.5-41.843C397.95,358.833,421.5,377.6,421.5,400.676Z" transform="translate(16.158 -358.833)" fill="none"/>
        <path id="Path_72-4" data-name="Path 72" d="M254.91,351.333H234.1c-8.6,0-15.6,6.431-15.6,14.337s7,14.337,15.6,14.337h5.2v59.366c0,7.906,7,14.337,15.6,14.337s15.6-6.431,15.6-14.337v-73.7C270.515,357.765,263.514,351.333,254.91,351.333Zm5.2,88.039a5.22,5.22,0,0,1-10.4,0V375.228a5,5,0,0,0-5.2-4.779H234.1a4.8,4.8,0,1,1,0-9.558H254.91a5.009,5.009,0,0,1,5.2,4.779Z" transform="translate(-40.254 -326.111)" fill="#0f4c75"/>
        <path id="Path_73-4" data-name="Path 73" d="M129.7,351.333c-21.616,0-39.2,16.481-39.2,36.738v24.9c0,20.257,17.586,36.738,39.2,36.738s39.2-16.481,39.2-36.738v-24.9C168.9,367.814,151.318,351.333,129.7,351.333Zm29.4,61.638c0,15.193-13.189,27.553-29.4,27.553s-29.4-12.361-29.4-27.553v-24.9c0-15.193,13.189-27.553,29.4-27.553s29.4,12.36,29.4,27.553Z" transform="translate(2.061 -326.111)" fill="#0f4c75"/>
        <path id="Path_74-4" data-name="Path 74" d="M139.944,381.333c-10.721,0-19.444,7.587-19.444,16.912V421.17c0,9.325,8.723,16.912,19.444,16.912s19.444-7.587,19.444-16.912V398.245c0-9.325-8.723-16.912-19.444-16.912Zm9.722,39.837c0,4.662-4.361,8.456-9.722,8.456s-9.722-3.793-9.722-8.456V398.245c0-4.663,4.361-8.456,9.722-8.456s9.722,3.793,9.722,8.456Z" transform="translate(-8.509 -334.827)" fill="#0f4c75"/>
        <path id="Path_75-4" data-name="Path 75" d="M472.119,351.333H452.051a14.641,14.641,0,1,0,0,29.27h5.017v60.6a15.057,15.057,0,0,0,30.1,0V365.968A14.864,14.864,0,0,0,472.119,351.333Zm5.017,89.869a5.019,5.019,0,0,1-10.034,0V375.724a4.949,4.949,0,0,0-5.017-4.878H452.051a4.88,4.88,0,1,1,0-9.757h20.068a4.954,4.954,0,0,1,5.017,4.878Z" transform="translate(-97.91 -328.239)" fill="#0f4c75"/>
        <path id="Path_76-4" data-name="Path 76" d="M35.745,351.333H15.319C6.873,351.333,0,357.513,0,365.11s6.873,13.777,15.319,13.777h5.106v57.046c0,7.6,6.873,13.777,15.319,13.777s15.319-6.18,15.319-13.777V365.11C51.064,357.514,44.191,351.333,35.745,351.333Zm5.106,84.6a4.875,4.875,0,0,1-5.106,4.592,4.875,4.875,0,0,1-5.106-4.592V374.294a4.87,4.87,0,0,0-5.106-4.592H15.319a4.618,4.618,0,1,1,0-9.184H35.745a4.875,4.875,0,0,1,5.106,4.592Z" transform="translate(19.681 -326.111)" fill="#0f4c75"/>
        <path id="Path_77-4" data-name="Path 77" d="M350.309,351.333c-22.778,0-41.309,16.481-41.309,36.738v24.9c0,20.257,18.531,36.738,41.309,36.738s41.309-16.481,41.309-36.738v-24.9C391.618,367.814,373.087,351.333,350.309,351.333Zm30.982,61.638c0,15.193-13.9,27.553-30.982,27.553s-30.982-12.361-30.982-27.553v-24.9c0-15.193,13.9-27.553,30.982-27.553s30.982,12.36,30.982,27.553Z" transform="translate(-55.237 -322.111)" fill="#0f4c75"/>
        <path id="Path_78-4" data-name="Path 78" d="M358.586,381.333c-10.8,0-19.586,7.854-19.586,17.508v23.733c0,9.654,8.786,17.508,19.586,17.508s19.586-7.854,19.586-17.508V398.841C378.172,389.188,369.386,381.333,358.586,381.333Zm9.793,41.241c0,4.827-4.393,8.754-9.793,8.754s-9.793-3.927-9.793-8.754V398.841c0-4.827,4.393-8.754,9.793-8.754s9.793,3.927,9.793,8.754Z" transform="translate(-63.291 -332.483)" fill="#0f4c75"/>
      </g>
    </g>
    <g id="Group_73" data-name="Group 73" transform="translate(-718.243 576.44) rotate(-8)">
      <g id="binary-code-5" data-name="binary-code" transform="translate(5078.319 1575.833)">
        <path id="Path_48-5" data-name="Path 48" d="M173,400.676c0-9.891-10.1-17.933-22.5-17.933S128,390.785,128,400.676v32.412c0,9.891,10.09,17.933,22.5,17.933s22.5-8.042,22.5-17.933c0,29.293,0,41.843-22.5,41.843-28.95,0-52.5-18.77-52.5-41.843V400.676c0-23.073,23.55-41.843,52.5-41.843C173,358.833,173,370.788,173,400.676Z" transform="translate(2.362 -358.833)" fill="none"/>
        <path id="Path_49-5" data-name="Path 49" d="M203,400.676v32.412c0,23.073-23.55,41.843-52.5,41.843,12.4,0,22.5-18.77,22.5-41.843V400.676c0-23.073-10.1-41.843-22.5-41.843C179.45,358.833,203,377.6,203,400.676Z" transform="translate(4.08 -358.833)" fill="none"/>
        <path id="Path_50-5" data-name="Path 50" d="M489.5,358.833h-30l15,23.91v80.232c0,6.6,6.716,11.955,15,11.955s15-5.353,15-11.955V370.788C504.5,364.186,497.784,358.833,489.5,358.833Z" transform="translate(14.973 -358.833)" fill="none"/>
        <path id="Path_51-5" data-name="Path 51" d="M459.5,358.833a15,15,0,0,0,0,30h15v-15A15,15,0,0,0,459.5,358.833Z" transform="translate(14.973 -354.253)" fill="none"/>
        <path id="Path_52-5" data-name="Path 52" d="M271,358.833H241l15,23.91v80.232c0,6.6,6.716,11.955,15,11.955s15-5.353,15-11.955V370.788C286,364.186,279.284,358.833,271,358.833Z" transform="translate(7.217 -358.833)" fill="none"/>
        <path id="Path_53-5" data-name="Path 53" d="M241,358.833a15,15,0,0,0,0,30h15v-15A15,15,0,0,0,241,358.833Z" transform="translate(6.428 -354.253)" fill="none"/>
        <path id="Path_54-5" data-name="Path 54" d="M52.5,358.833h-30l15,19.154V442.26c0,5.289,6.716,9.577,15,9.577s15-4.288,15-9.577V368.41C67.5,363.121,60.784,358.833,52.5,358.833Z" transform="translate(-22.5 -335.739)" fill="none"/>
        <path id="Path_56-5" data-name="Path 56" d="M391.5,400.676c0-9.891-10.1-17.933-22.5-17.933s-22.5,8.042-22.5,17.933v32.412c0,9.891,10.09,17.933,22.5,17.933s22.5-8.042,22.5-17.933c0,29.293,0,41.843-22.5,41.843-28.95,0-52.5-18.77-52.5-41.843V400.676c0-23.073,23.55-41.843,52.5-41.843C391.5,358.833,391.5,370.788,391.5,400.676Z" transform="translate(10.696 -358.833)" fill="none"/>
        <path id="Path_57-5" data-name="Path 57" d="M421.5,400.676v32.412c0,23.073-23.55,41.843-52.5,41.843,12.4,0,22.5-18.77,22.5-41.843V400.676c0-23.073-10.1-41.843-22.5-41.843C397.95,358.833,421.5,377.6,421.5,400.676Z" transform="translate(16.158 -358.833)" fill="none"/>
        <path id="Path_72-5" data-name="Path 72" d="M254.91,351.333H234.1c-8.6,0-15.6,6.431-15.6,14.337s7,14.337,15.6,14.337h5.2v59.366c0,7.906,7,14.337,15.6,14.337s15.6-6.431,15.6-14.337v-73.7C270.515,357.765,263.514,351.333,254.91,351.333Zm5.2,88.039a5.22,5.22,0,0,1-10.4,0V375.228a5,5,0,0,0-5.2-4.779H234.1a4.8,4.8,0,1,1,0-9.558H254.91a5.009,5.009,0,0,1,5.2,4.779Z" transform="translate(-40.254 -326.111)" fill="#0f4c75"/>
        <path id="Path_73-5" data-name="Path 73" d="M129.7,351.333c-21.616,0-39.2,16.481-39.2,36.738v24.9c0,20.257,17.586,36.738,39.2,36.738s39.2-16.481,39.2-36.738v-24.9C168.9,367.814,151.318,351.333,129.7,351.333Zm29.4,61.638c0,15.193-13.189,27.553-29.4,27.553s-29.4-12.361-29.4-27.553v-24.9c0-15.193,13.189-27.553,29.4-27.553s29.4,12.36,29.4,27.553Z" transform="translate(2.061 -326.111)" fill="#0f4c75"/>
        <path id="Path_74-5" data-name="Path 74" d="M139.944,381.333c-10.721,0-19.444,7.587-19.444,16.912V421.17c0,9.325,8.723,16.912,19.444,16.912s19.444-7.587,19.444-16.912V398.245c0-9.325-8.723-16.912-19.444-16.912Zm9.722,39.837c0,4.662-4.361,8.456-9.722,8.456s-9.722-3.793-9.722-8.456V398.245c0-4.663,4.361-8.456,9.722-8.456s9.722,3.793,9.722,8.456Z" transform="translate(-8.509 -334.827)" fill="#0f4c75"/>
        <path id="Path_75-5" data-name="Path 75" d="M472.119,351.333H452.051a14.641,14.641,0,1,0,0,29.27h5.017v60.6a15.057,15.057,0,0,0,30.1,0V365.968A14.864,14.864,0,0,0,472.119,351.333Zm5.017,89.869a5.019,5.019,0,0,1-10.034,0V375.724a4.949,4.949,0,0,0-5.017-4.878H452.051a4.88,4.88,0,1,1,0-9.757h20.068a4.954,4.954,0,0,1,5.017,4.878Z" transform="translate(-97.91 -328.239)" fill="#0f4c75"/>
        <path id="Path_76-5" data-name="Path 76" d="M35.745,351.333H15.319C6.873,351.333,0,357.513,0,365.11s6.873,13.777,15.319,13.777h5.106v57.046c0,7.6,6.873,13.777,15.319,13.777s15.319-6.18,15.319-13.777V365.11C51.064,357.514,44.191,351.333,35.745,351.333Zm5.106,84.6a4.875,4.875,0,0,1-5.106,4.592,4.875,4.875,0,0,1-5.106-4.592V374.294a4.87,4.87,0,0,0-5.106-4.592H15.319a4.618,4.618,0,1,1,0-9.184H35.745a4.875,4.875,0,0,1,5.106,4.592Z" transform="translate(19.681 -326.111)" fill="#0f4c75"/>
        <path id="Path_77-5" data-name="Path 77" d="M350.309,351.333c-22.778,0-41.309,16.481-41.309,36.738v24.9c0,20.257,18.531,36.738,41.309,36.738s41.309-16.481,41.309-36.738v-24.9C391.618,367.814,373.087,351.333,350.309,351.333Zm30.982,61.638c0,15.193-13.9,27.553-30.982,27.553s-30.982-12.361-30.982-27.553v-24.9c0-15.193,13.9-27.553,30.982-27.553s30.982,12.36,30.982,27.553Z" transform="translate(-55.237 -322.111)" fill="#0f4c75"/>
        <path id="Path_78-5" data-name="Path 78" d="M358.586,381.333c-10.8,0-19.586,7.854-19.586,17.508v23.733c0,9.654,8.786,17.508,19.586,17.508s19.586-7.854,19.586-17.508V398.841C378.172,389.188,369.386,381.333,358.586,381.333Zm9.793,41.241c0,4.827-4.393,8.754-9.793,8.754s-9.793-3.927-9.793-8.754V398.841c0-4.827,4.393-8.754,9.793-8.754s9.793,3.927,9.793,8.754Z" transform="translate(-63.291 -332.483)" fill="#0f4c75"/>
      </g>
    </g>
  </g>
</svg>
