<svg xmlns="http://www.w3.org/2000/svg" width="553.878" height="530.401" viewBox="0 0 553.878 530.401">
  <g id="Group_47" data-name="Group 47" transform="translate(891.61 -1123.988)">
    <g id="flower" transform="translate(-861.981 1191.639) rotate(-25)">
      <path id="Path_15" data-name="Path 15" d="M160.075,18.435V9.219a1.929,1.929,0,0,0-2-1.843h-2V1.846a1.929,1.929,0,0,0-2-1.843c-2.837,0-7.182-.2-12.282,2.61a25.833,25.833,0,0,0-7.757-.767,1.929,1.929,0,0,0-2,1.843V7.376h-2a1.929,1.929,0,0,0-2,1.843v9.216c0,7.507,6.13,13.721,14.027,14.63V57.142a2.011,2.011,0,0,0,4.008,0V50.691h3.006c6.077,0,11.021-4.548,11.021-10.137V37.788a1.929,1.929,0,0,0-2-1.843h-5.01a11.566,11.566,0,0,0-7.013,2.323v-5.2c7.885-.9,14.027-7.081,14.027-14.63Zm-4.008,0A10.689,10.689,0,0,1,152,26.709a6.831,6.831,0,0,0,.062-.9,17.542,17.542,0,0,0-5.018-12.186,16.994,16.994,0,0,1,9.026-2.56ZM152.059,3.69V7.748q-.556.1-1.1.237a19.744,19.744,0,0,0-4.4-3.4A17.261,17.261,0,0,1,152.059,3.69ZM136.028,5.533a16.724,16.724,0,0,1,10.854,3.892,20.328,20.328,0,0,0-2.844,1.643,20.823,20.823,0,0,0-8.01-3.321Zm-4.008,12.9V11.062c8.839,0,16.031,6.615,16.031,14.745a3.87,3.87,0,0,1-4.113,3.685C136.9,29.332,132.021,24.188,132.021,18.435Zm21.04,21.2h3.006v.922A6.758,6.758,0,0,1,149.053,47h-3.006v-.922A6.758,6.758,0,0,1,153.061,39.631Z" transform="translate(0 0)" fill="rgba(15,76,117,0.78)"/>
    </g>
    <g id="flower-2" data-name="flower" transform="translate(-498.271 1691.49) rotate(-40)">
      <path id="Path_15-2" data-name="Path 15" d="M160.075,18.435V9.219a1.929,1.929,0,0,0-2-1.843h-2V1.846a1.929,1.929,0,0,0-2-1.843c-2.837,0-7.182-.2-12.282,2.61a25.833,25.833,0,0,0-7.757-.767,1.929,1.929,0,0,0-2,1.843V7.376h-2a1.929,1.929,0,0,0-2,1.843v9.216c0,7.507,6.13,13.721,14.027,14.63V57.142a2.011,2.011,0,0,0,4.008,0V50.691h3.006c6.077,0,11.021-4.548,11.021-10.137V37.788a1.929,1.929,0,0,0-2-1.843h-5.01a11.566,11.566,0,0,0-7.013,2.323v-5.2c7.885-.9,14.027-7.081,14.027-14.63Zm-4.008,0A10.689,10.689,0,0,1,152,26.709a6.831,6.831,0,0,0,.062-.9,17.542,17.542,0,0,0-5.018-12.186,16.994,16.994,0,0,1,9.026-2.56ZM152.059,3.69V7.748q-.556.1-1.1.237a19.744,19.744,0,0,0-4.4-3.4A17.261,17.261,0,0,1,152.059,3.69ZM136.028,5.533a16.724,16.724,0,0,1,10.854,3.892,20.328,20.328,0,0,0-2.844,1.643,20.823,20.823,0,0,0-8.01-3.321Zm-4.008,12.9V11.062c8.839,0,16.031,6.615,16.031,14.745a3.87,3.87,0,0,1-4.113,3.685C136.9,29.332,132.021,24.188,132.021,18.435Zm21.04,21.2h3.006v.922A6.758,6.758,0,0,1,149.053,47h-3.006v-.922A6.758,6.758,0,0,1,153.061,39.631Z" transform="translate(0 0)" fill="rgba(15,76,117,0.78)"/>
    </g>
    <g id="flower-3" data-name="flower" transform="translate(-502.966 1125.191) rotate(50)">
      <path id="Path_15-3" data-name="Path 15" d="M160.075,18.435V9.219a1.929,1.929,0,0,0-2-1.843h-2V1.846a1.929,1.929,0,0,0-2-1.843c-2.837,0-7.182-.2-12.282,2.61a25.833,25.833,0,0,0-7.757-.767,1.929,1.929,0,0,0-2,1.843V7.376h-2a1.929,1.929,0,0,0-2,1.843v9.216c0,7.507,6.13,13.721,14.027,14.63V57.142a2.011,2.011,0,0,0,4.008,0V50.691h3.006c6.077,0,11.021-4.548,11.021-10.137V37.788a1.929,1.929,0,0,0-2-1.843h-5.01a11.566,11.566,0,0,0-7.013,2.323v-5.2c7.885-.9,14.027-7.081,14.027-14.63Zm-4.008,0A10.689,10.689,0,0,1,152,26.709a6.831,6.831,0,0,0,.062-.9,17.542,17.542,0,0,0-5.018-12.186,16.994,16.994,0,0,1,9.026-2.56ZM152.059,3.69V7.748q-.556.1-1.1.237a19.744,19.744,0,0,0-4.4-3.4A17.261,17.261,0,0,1,152.059,3.69ZM136.028,5.533a16.724,16.724,0,0,1,10.854,3.892,20.328,20.328,0,0,0-2.844,1.643,20.823,20.823,0,0,0-8.01-3.321Zm-4.008,12.9V11.062c8.839,0,16.031,6.615,16.031,14.745a3.87,3.87,0,0,1-4.113,3.685C136.9,29.332,132.021,24.188,132.021,18.435Zm21.04,21.2h3.006v.922A6.758,6.758,0,0,1,149.053,47h-3.006v-.922A6.758,6.758,0,0,1,153.061,39.631Z" transform="translate(0 0)" fill="rgba(15,76,117,0.78)"/>
    </g>
    <g id="flower-4" data-name="flower" transform="translate(-721.383 1460.847) rotate(156)">
      <path id="Path_15-4" data-name="Path 15" d="M160.075,18.435V9.219a1.929,1.929,0,0,0-2-1.843h-2V1.846a1.929,1.929,0,0,0-2-1.843c-2.837,0-7.182-.2-12.282,2.61a25.833,25.833,0,0,0-7.757-.767,1.929,1.929,0,0,0-2,1.843V7.376h-2a1.929,1.929,0,0,0-2,1.843v9.216c0,7.507,6.13,13.721,14.027,14.63V57.142a2.011,2.011,0,0,0,4.008,0V50.691h3.006c6.077,0,11.021-4.548,11.021-10.137V37.788a1.929,1.929,0,0,0-2-1.843h-5.01a11.566,11.566,0,0,0-7.013,2.323v-5.2c7.885-.9,14.027-7.081,14.027-14.63Zm-4.008,0A10.689,10.689,0,0,1,152,26.709a6.831,6.831,0,0,0,.062-.9,17.542,17.542,0,0,0-5.018-12.186,16.994,16.994,0,0,1,9.026-2.56ZM152.059,3.69V7.748q-.556.1-1.1.237a19.744,19.744,0,0,0-4.4-3.4A17.261,17.261,0,0,1,152.059,3.69ZM136.028,5.533a16.724,16.724,0,0,1,10.854,3.892,20.328,20.328,0,0,0-2.844,1.643,20.823,20.823,0,0,0-8.01-3.321Zm-4.008,12.9V11.062c8.839,0,16.031,6.615,16.031,14.745a3.87,3.87,0,0,1-4.113,3.685C136.9,29.332,132.021,24.188,132.021,18.435Zm21.04,21.2h3.006v.922A6.758,6.758,0,0,1,149.053,47h-3.006v-.922A6.758,6.758,0,0,1,153.061,39.631Z" transform="translate(0 0)" fill="rgba(15,76,117,0.78)"/>
    </g>
  </g>
</svg>
