<svg xmlns="http://www.w3.org/2000/svg" width="16" height="19.5" viewBox="0 0 16 19.5">
  <g id="Group_23" data-name="Group 23" transform="translate(-1042 -1848.5)">
    <path id="Path_11" data-name="Path 11" d="M8,0a7.762,7.762,0,0,1,8,7.5A7.762,7.762,0,0,1,8,15,7.762,7.762,0,0,1,0,7.5,7.762,7.762,0,0,1,8,0Z" transform="translate(1042 1853)" fill="#0f4c75"/>
    <path id="iconmonstr-facebook-1" d="M8.014,5.667H6V8.5H8.014V17h3.357V8.5h2.446l.24-2.833H11.372V4.486c0-.676.129-.944.749-.944h1.937V0H11.5C9.086,0,8.014,1.121,8.014,3.269Z" transform="translate(1042.211 1849)" fill="none" stroke="#900d0d" stroke-width="1"/>
  </g>
</svg>
