<svg xmlns="http://www.w3.org/2000/svg" width="18.937" height="19.607" viewBox="0 0 18.937 19.607">
  <g id="Group_22" data-name="Group 22" transform="translate(-723 -1838.393)">
    <ellipse id="Ellipse_2" data-name="Ellipse 2" cx="8" cy="7.5" rx="8" ry="7.5" transform="translate(723 1843)" fill="#0f4c75"/>
    <g id="Group_114" data-name="Group 114" transform="translate(728 1843)">
      <g id="Group_113" data-name="Group 113" transform="translate(-3 -2)">
        <path id="Path_100" data-name="Path 100" d="M15.963,13.28l-2.522-2.522a1.315,1.315,0,0,0-1.854.035l-1.271,1.27-.251-.139A12.643,12.643,0,0,1,7.01,9.713,12.714,12.714,0,0,1,4.8,6.652c-.047-.085-.092-.167-.137-.245l.853-.851.419-.42a1.314,1.314,0,0,0,.034-1.854L3.443.76A1.314,1.314,0,0,0,1.589.794l-.711.715.022.02A4.11,4.11,0,0,0,.312,2.562,4.283,4.283,0,0,0,.051,3.609C-.282,6.37.98,8.893,4.4,12.316c4.732,4.732,8.546,4.375,8.711,4.357a4.261,4.261,0,0,0,1.051-.264,4.1,4.1,0,0,0,1.029-.583l.016.014.72-.7a1.316,1.316,0,0,0,.036-1.855Z" transform="translate(0 -2.394)" fill="none" stroke="#900d0d" stroke-width="1"/>
      </g>
    </g>
  </g>
</svg>
