<svg xmlns="http://www.w3.org/2000/svg" width="25.403" height="23.564" viewBox="0 0 25.403 23.564">
  <g id="Group_25" data-name="Group 25" transform="translate(-1291.279 -1452.912)">
    <path id="Path_10" data-name="Path 10" d="M8,0A8,8,0,1,1,0,8,8,8,0,0,1,8,0Z" transform="translate(1292 1460)" fill="#0f4c75"/>
    <g id="snapchat" transform="translate(1149.447 1415.714)">
      <path id="Path_6" data-name="Path 6" d="M147.553,53.743h0a12.663,12.663,0,0,0,.063,1.291,5.82,5.82,0,0,0,.286,1.3,4.167,4.167,0,0,0,.839,1.409,2.62,2.62,0,0,0,.84.632,3.393,3.393,0,0,0,1.381.282c.293,0,.586.013.879.011,2.128-.012,4.257.021,6.385-.018a3.681,3.681,0,0,0,.837-.123,2.626,2.626,0,0,0,1.4-.947,4.523,4.523,0,0,0,.927-2.145,10.756,10.756,0,0,0,.121-1.7v-.114c0-.044-.012-9.678-.013-9.805a8.182,8.182,0,0,0-.069-1.041,5.468,5.468,0,0,0-.283-1.208,4.367,4.367,0,0,0-.581-1.076,2.832,2.832,0,0,0-1.268-1,3.776,3.776,0,0,0-1.341-.2.024.024,0,0,1,0-.01H151.11v.01a5.3,5.3,0,0,0-.769.048,2.825,2.825,0,0,0-.822.257,3.017,3.017,0,0,0-1.089.993,4.562,4.562,0,0,0-.729,1.767,9.767,9.767,0,0,0-.143,1.846" transform="translate(0 0)" fill="none"/>
      <path id="Path_7" data-name="Path 7" d="M224.5,134.245c-.046,0-.091,0-.124,0s-.054,0-.082,0a3.75,3.75,0,0,1-2.2-.82,3.242,3.242,0,0,0-1.256-.607,4.281,4.281,0,0,0-.661-.053,4.77,4.77,0,0,0-.916.1,2.142,2.142,0,0,1-.348.047.239.239,0,0,1-.261-.177c-.039-.124-.066-.244-.093-.359-.067-.289-.115-.465-.229-.481-1.222-.178-1.944-.441-2.088-.759a.283.283,0,0,1-.025-.1.188.188,0,0,1,.164-.193,4.32,4.32,0,0,0,2.564-1.442,5.4,5.4,0,0,0,.875-1.286l0-.009a.79.79,0,0,0,.084-.695c-.157-.351-.679-.508-1.024-.611-.086-.026-.167-.05-.232-.074-.306-.114-.809-.356-.742-.689.049-.243.389-.412.663-.412a.493.493,0,0,1,.2.038,2.1,2.1,0,0,0,.829.207.719.719,0,0,0,.478-.138c-.009-.151-.019-.31-.029-.461v0a7.4,7.4,0,0,1,.2-3.119,4.33,4.33,0,0,1,3.979-2.428l.29,0h.039a4.337,4.337,0,0,1,3.986,2.429,7.408,7.408,0,0,1,.2,3.122l0,.051c-.01.143-.019.279-.026.41a.7.7,0,0,0,.433.137,2.169,2.169,0,0,0,.781-.206.648.648,0,0,1,.256-.048.813.813,0,0,1,.292.053l0,0c.246.083.407.247.41.421s-.124.4-.748.636c-.064.024-.145.048-.232.074-.345.1-.866.26-1.024.611a.789.789,0,0,0,.084.695l0,.009a4.955,4.955,0,0,0,3.439,2.728.188.188,0,0,1,.164.193.284.284,0,0,1-.026.1c-.143.316-.865.579-2.087.757-.115.017-.163.192-.229.479-.027.119-.055.235-.093.357a.227.227,0,0,1-.242.171h-.019a2.06,2.06,0,0,1-.348-.042,4.827,4.827,0,0,0-.916-.092,4.29,4.29,0,0,0-.661.053,3.238,3.238,0,0,0-1.254.606,3.754,3.754,0,0,1-2.2.821" transform="translate(-69.861 -78)" fill="#900d0d"/>
      <path id="Path_8" data-name="Path 8" d="M224.637,115.784a6.224,6.224,0,0,1,5.773,3.668c.508,1.125.378,3.162.274,4.8-.016.26-.033.511-.046.752l-.006.1.07.077a1.254,1.254,0,0,0,.88.326h.019a3.475,3.475,0,0,0,1.3-.353.644.644,0,0,1,.262-.048.888.888,0,0,1,.33.062l.015.006c.249.086.426.249.428.4,0,.083-.062.383-.945.727-.086.034-.2.069-.332.11-.575.18-1.444.452-1.736,1.132a1.569,1.569,0,0,0,.134,1.343c.1.24,1.746,3.888,5.44,4.489a.16.16,0,0,1-.015.058c-.063.145-.461.648-2.937,1.025-.387.059-.482.487-.592.985-.04.178-.08.358-.136.544-.017.056-.02.059-.081.059h-.029a2.765,2.765,0,0,1-.47-.06,7.362,7.362,0,0,0-1.447-.151,6.489,6.489,0,0,0-1.051.088,5.045,5.045,0,0,0-2.027,1.01,5.24,5.24,0,0,1-3.165,1.243c-.06,0-.119,0-.178,0h-.031c-.034,0-.068,0-.1,0a5.238,5.238,0,0,1-3.164-1.243,5.048,5.048,0,0,0-2.027-1.01,6.506,6.506,0,0,0-1.051-.088,7.224,7.224,0,0,0-1.447.16,3,3,0,0,1-.47.069c-.09,0-.091-.005-.11-.069-.056-.186-.1-.37-.136-.548-.11-.5-.205-.93-.593-.988-2.476-.377-2.874-.881-2.937-1.026a.176.176,0,0,1-.015-.06c3.694-.6,5.335-4.248,5.44-4.489a1.565,1.565,0,0,0,.134-1.343c-.292-.679-1.161-.952-1.736-1.132-.132-.041-.246-.077-.332-.111-.746-.291-.976-.584-.942-.762.04-.2.4-.413.713-.413a.436.436,0,0,1,.178.032,3.366,3.366,0,0,0,1.384.355,1.286,1.286,0,0,0,.958-.328l.07-.077-.006-.1c-.013-.24-.029-.492-.046-.751-.1-1.637-.235-3.673.274-4.8a6.217,6.217,0,0,1,5.762-3.665l.442,0h.056m0-.587h-.063l-.437,0a7.445,7.445,0,0,0-2.9.606,6.477,6.477,0,0,0-1.853,1.212,6.84,6.84,0,0,0-1.548,2.2c-.568,1.256-.433,3.371-.325,5.071v0c.012.182.024.372.035.557a1.006,1.006,0,0,1-.417.078,2.786,2.786,0,0,1-1.131-.3,1.024,1.024,0,0,0-.431-.088,1.543,1.543,0,0,0-.761.21,1.041,1.041,0,0,0-.537.68.93.93,0,0,0,.362.882,3.11,3.11,0,0,0,.946.536c.108.042.236.082.371.124.47.147,1.182.37,1.368.8a1.03,1.03,0,0,1-.12.854l-.013.029a8.257,8.257,0,0,1-1.278,1.958,7.162,7.162,0,0,1-1.544,1.348,5.722,5.722,0,0,1-2.167.835.589.589,0,0,0-.5.612.766.766,0,0,0,.061.256v0a1.585,1.585,0,0,0,.86.728,9.935,9.935,0,0,0,2.484.64,2.983,2.983,0,0,1,.152.541c.041.189.085.383.146.589a.65.65,0,0,0,.681.491,3.315,3.315,0,0,0,.584-.08,6.669,6.669,0,0,1,1.333-.15,5.918,5.918,0,0,1,.953.08,4.55,4.55,0,0,1,1.78.909,5.8,5.8,0,0,0,3.509,1.351c.043,0,.086,0,.128,0s.116,0,.184,0a5.8,5.8,0,0,0,3.508-1.351h0a4.554,4.554,0,0,1,1.779-.908,5.921,5.921,0,0,1,.953-.08,6.739,6.739,0,0,1,1.333.14,3.2,3.2,0,0,0,.584.071h.029a.642.642,0,0,0,.652-.482c.06-.2.1-.392.146-.584a3.035,3.035,0,0,1,.151-.538,9.948,9.948,0,0,0,2.484-.64,1.588,1.588,0,0,0,.859-.725.744.744,0,0,0,.063-.258.589.589,0,0,0-.5-.612c-3.4-.552-4.926-3.995-4.989-4.141l-.014-.028a1.03,1.03,0,0,1-.12-.854c.185-.431.9-.654,1.367-.8.136-.042.265-.083.372-.124a2.862,2.862,0,0,0,1.013-.6.944.944,0,0,0,.309-.686,1.082,1.082,0,0,0-.816-.935,1.476,1.476,0,0,0-.553-.1,1.252,1.252,0,0,0-.514.1,2.925,2.925,0,0,1-1.059.3.969.969,0,0,1-.35-.076c.009-.157.02-.318.03-.486l0-.072c.109-1.7.244-3.818-.324-5.075a6.85,6.85,0,0,0-1.554-2.2,6.5,6.5,0,0,0-1.859-1.212,7.483,7.483,0,0,0-2.9-.6" transform="translate(-69.859 -77.999)" fill="#900d0d"/>
      <rect id="Rectangle_16" data-name="Rectangle 16" width="13.961" height="18.987" transform="translate(147.553 39.443)" fill="none"/>
    </g>
  </g>
</svg>
