<svg xmlns="http://www.w3.org/2000/svg" width="126" height="63" viewBox="0 0 126 63">
  <g id="Group_78" data-name="Group 78" transform="translate(-214 -1450)" style="isolation: isolate">
    <g id="Group_2" data-name="Group 2" transform="translate(23 2)">
      <g id="Group_1" data-name="Group 1">
        <rect id="Rectangle_2" data-name="Rectangle 2" width="15" height="63" rx="7.5" transform="translate(201 1448)" fill="#900d0d"/>
      </g>
      <rect id="Rectangle_3" data-name="Rectangle 3" width="35" height="17" rx="8.5" transform="translate(191 1448)" fill="#900d0d"/>
    </g>
    <g id="Group_3" data-name="Group 3" transform="translate(-1 2)">
      <rect id="Rectangle_5" data-name="Rectangle 5" width="15" height="13" rx="6.5" transform="translate(256 1450)" fill="#900d0d"/>
      <rect id="Rectangle_8" data-name="Rectangle 8" width="15" height="39" rx="7.5" transform="translate(256 1472)" fill="#900d0d"/>
    </g>
    <g id="Group_4" data-name="Group 4" transform="translate(-7 2)">
      <path id="Path_2" data-name="Path 2" d="M2,0,12.289.185C13.394.185,15,.9,15,2V52a2,2,0,0,1-2,2H2a2,2,0,0,1-2-2V2A2,2,0,0,1,2,0Z" transform="translate(289 1457)" fill="#900d0d"/>
      <path id="Path_3" data-name="Path 3" d="M3.867.185,12,0a3,3,0,0,1,3,3V51a3,3,0,0,1-3,3H3a3,3,0,0,1-3-3V3C0,1.343,2.21.185,3.867.185Z" transform="translate(332 1457)" fill="#900d0d"/>
      <path id="Path_1" data-name="Path 1" d="M-10.818-12.855s8.635,1.272,12.2,5.568S6.065,4.444,6.065,4.444s.909-7.435,4.461-11.731S24.1-12.855,24.1-12.855L11.572,19.479s-2.8,4.186-5.508,4.186S.722,19.479.722,19.479Z" transform="translate(311 1470)" fill="#900d0d"/>
    </g>
  </g>
</svg>
