<svg xmlns="http://www.w3.org/2000/svg" width="24.462" height="23.01" viewBox="0 0 24.462 23.01">
  <g id="Group_31" data-name="Group 31" transform="translate(-1101.5 -3331)">
    <path id="like" d="M12.158,6.065A6.4,6.4,0,0,1,18.024,2c3.533,0,6.078,3.09,6.4,6.774a6.887,6.887,0,0,1-.207,2.561,11.371,11.371,0,0,1-3.375,5.755L12.158,25.01l-8.53-7.921A11.369,11.369,0,0,1,.247,11.335,6.887,6.887,0,0,1,.039,8.774C.358,5.09,2.9,2,6.438,2A6.207,6.207,0,0,1,12.158,6.065Z" transform="translate(1101.5 3329)" fill="#900d0d"/>
    <path id="Path_13" data-name="Path 13" d="M2.5,0C3.881,0,4.341.04,4.341,1.145S3.881,2,2.5,2,0,3.1,0,2A2.292,2.292,0,0,1,2.5,0Z" transform="translate(1106 3338)" fill="#fff"/>
  </g>
</svg>
