<svg xmlns="http://www.w3.org/2000/svg" width="222.267" height="240.604" viewBox="0 0 222.267 240.604">
  <g id="Group_48" data-name="Group 48" transform="translate(381.5 -1041.697)">
    <g id="Group_39" data-name="Group 39" transform="translate(18 -13)">
      <g id="Group_37" data-name="Group 37" transform="translate(0 -251)">
        <path id="like" d="M22.345,11.191C24.138,7.377,28.389,2.035,33.127,2a11.681,11.681,0,0,1,11.76,10.588,9.22,9.22,0,0,1-.381,4,17.439,17.439,0,0,1-6.2,9L22.345,37.966,6.667,25.586a17.442,17.442,0,0,1-6.214-9,9.22,9.22,0,0,1-.381-4A11.675,11.675,0,0,1,11.832,2C16.5,2.044,20.669,7.4,22.345,11.191Z" transform="translate(-399.5 1401.503)" fill="rgba(15,76,117,0.79)"/>
        <path id="Path_14" data-name="Path 14" d="M3.5,0A3.775,3.775,0,0,1,7,4C7,6.209,5.433,8.142,3.5,8.142,2.6,8.142,4.932,5,4.057,4A6.1,6.1,0,0,0,2.287,2.578S1.567,0,3.5,0Z" transform="translate(-370.291 1408.984)" fill="rgba(255,255,255,0.79)"/>
      </g>
    </g>
    <g id="Group_42" data-name="Group 42">
      <g id="Group_35" data-name="Group 35" transform="translate(76.213 2675.04) rotate(150)">
        <path id="like-2" data-name="like" d="M22.345,11.191C24.138,7.377,28.389,2.035,33.127,2a11.681,11.681,0,0,1,11.76,10.588,9.22,9.22,0,0,1-.381,4,17.439,17.439,0,0,1-6.2,9L22.345,37.966,6.667,25.586a17.442,17.442,0,0,1-6.214-9,9.22,9.22,0,0,1-.381-4A11.675,11.675,0,0,1,11.832,2C16.5,2.044,20.669,7.4,22.345,11.191Z" transform="translate(-399.5 1401.503)" fill="rgba(15,76,117,0.79)"/>
        <path id="Path_14-2" data-name="Path 14" d="M3.5,0A3.775,3.775,0,0,1,7,4C7,6.209,5.433,8.142,3.5,8.142,2.6,8.142,4.932,5,4.057,4A6.1,6.1,0,0,0,2.287,2.578S1.567,0,3.5,0Z" transform="translate(-370.291 1408.984)" fill="rgba(255,255,255,0.79)"/>
      </g>
    </g>
    <g id="Group_38" data-name="Group 38" transform="translate(50 33)">
      <g id="Group_30" data-name="Group 30" transform="translate(-839.591 -181.483) rotate(-39)">
        <path id="like-3" data-name="like" d="M22.345,11.191C24.138,7.377,28.389,2.035,33.127,2a11.681,11.681,0,0,1,11.76,10.588,9.22,9.22,0,0,1-.381,4,17.439,17.439,0,0,1-6.2,9L22.345,37.966,6.667,25.586a17.442,17.442,0,0,1-6.214-9,9.22,9.22,0,0,1-.381-4A11.675,11.675,0,0,1,11.832,2C16.5,2.044,20.669,7.4,22.345,11.191Z" transform="translate(-399.5 1401.503)" fill="rgba(15,76,117,0.79)"/>
        <path id="Path_14-3" data-name="Path 14" d="M3.5,0A3.775,3.775,0,0,1,7,4C7,6.209,5.433,8.142,3.5,8.142,2.6,8.142,4.932,5,4.057,4A6.1,6.1,0,0,0,2.287,2.578S1.567,0,3.5,0Z" transform="translate(-370.291 1408.984)" fill="rgba(255,255,255,0.79)"/>
      </g>
    </g>
    <g id="Group_40" data-name="Group 40" transform="translate(26 31)">
      <g id="Group_34" data-name="Group 34" transform="translate(597.575 -101.758) rotate(24)">
        <path id="like-4" data-name="like" d="M22.345,11.191C24.138,7.377,28.389,2.035,33.127,2a11.681,11.681,0,0,1,11.76,10.588,9.22,9.22,0,0,1-.381,4,17.439,17.439,0,0,1-6.2,9L22.345,37.966,6.667,25.586a17.442,17.442,0,0,1-6.214-9,9.22,9.22,0,0,1-.381-4A11.675,11.675,0,0,1,11.832,2C16.5,2.044,20.669,7.4,22.345,11.191Z" transform="translate(-399.5 1401.503)" fill="rgba(15,76,117,0.79)"/>
        <path id="Path_14-4" data-name="Path 14" d="M3.5,0A3.775,3.775,0,0,1,7,4C7,6.209,5.433,8.142,3.5,8.142,2.6,8.142,4.932,5,4.057,4A6.1,6.1,0,0,0,2.287,2.578S1.567,0,3.5,0Z" transform="translate(-370.291 1408.984)" fill="rgba(255,255,255,0.79)"/>
      </g>
    </g>
    <g id="Group_41" data-name="Group 41">
      <g id="Group_36" data-name="Group 36" transform="matrix(0.017, -1, 1, 0.017, -1620.71, 662.715)">
        <path id="like-5" data-name="like" d="M22.345,11.191C24.138,7.377,28.389,2.035,33.127,2a11.681,11.681,0,0,1,11.76,10.588,9.22,9.22,0,0,1-.381,4,17.439,17.439,0,0,1-6.2,9L22.345,37.966,6.667,25.586a17.442,17.442,0,0,1-6.214-9,9.22,9.22,0,0,1-.381-4A11.675,11.675,0,0,1,11.832,2C16.5,2.044,20.669,7.4,22.345,11.191Z" transform="translate(-399.5 1401.503)" fill="rgba(15,76,117,0.79)"/>
        <path id="Path_14-5" data-name="Path 14" d="M3.5,0A3.775,3.775,0,0,1,7,4C7,6.209,5.433,8.142,3.5,8.142,2.6,8.142,4.932,5,4.057,4A6.1,6.1,0,0,0,2.287,2.578S1.567,0,3.5,0Z" transform="translate(-370.291 1408.984)" fill="#fff"/>
      </g>
    </g>
  </g>
</svg>
