<svg xmlns="http://www.w3.org/2000/svg" width="200.668" height="267.728" viewBox="0 0 200.668 267.728">
  <g id="Group_46" data-name="Group 46" transform="translate(652.532 -866.587)">
    <g id="Group_43" data-name="Group 43" transform="translate(0 20.633)">
      <g id="sparkle" transform="translate(-601.532 845.954)">
        <path id="Path_16" data-name="Path 16" d="M321.549,379.5a5.143,5.143,0,1,0,10.274,0c0-8.915,6.913-16.168,15.412-16.168a5.4,5.4,0,0,0,0-10.779c-8.5,0-15.412-7.253-15.412-16.168a5.143,5.143,0,1,0-10.274,0c0,8.915-6.913,16.168-15.412,16.168a5.4,5.4,0,0,0,0,10.779C314.635,363.336,321.549,370.589,321.549,379.5Z" transform="translate(-202.704 -257.171)" fill="rgba(15,76,117,0.8)"/>
        <path id="Path_17" data-name="Path 17" d="M0,275.983a3.737,3.737,0,0,0,3.572,3.887c13.785,0,25.241,12.467,25.241,27.468a3.737,3.737,0,0,0,3.572,3.887,3.737,3.737,0,0,0,3.572-3.887c0-15,11.218-27.468,25-27.468a3.9,3.9,0,0,0,0-7.774c-13.785,0-25-12.207-25-27.209A3.737,3.737,0,0,0,32.385,241a3.737,3.737,0,0,0-3.572,3.887c0,15-11.456,27.209-25.241,27.209A3.737,3.737,0,0,0,0,275.983Z" transform="translate(0 -192.725)" fill="rgba(15,76,117,0.8)"/>
        <path id="Path_18" data-name="Path 18" d="M321.408,36.141c-18.183,0-33.294-14.37-33.294-31.661a4.717,4.717,0,0,0-9.423,0c0,17.291-14.8,31.661-32.98,31.661a4.486,4.486,0,1,0,0,8.961c18.183,0,32.98,14.071,32.98,31.362a4.717,4.717,0,0,0,9.423,0c0-17.291,15.111-31.362,33.294-31.362a4.486,4.486,0,1,0,0-8.961Z" transform="translate(-194.704 0)" fill="rgba(15,76,117,0.8)"/>
        <path id="Path_19" data-name="Path 19" d="M76.637,69.931a3.929,3.929,0,1,0,7.818,0c0-7.156,5.261-12.977,11.728-12.977a4.348,4.348,0,0,0,0-8.651c-6.467,0-11.728-5.821-11.728-12.977a3.929,3.929,0,1,0-7.818,0c0,7.156-5.261,12.977-11.728,12.977a4.348,4.348,0,0,0,0,8.651C71.376,56.954,76.637,62.775,76.637,69.931Z" transform="translate(0.83 76.729)" fill="rgba(15,76,117,0.8)"/>
      </g>
      <path id="Polygon_6" data-name="Polygon 6" d="M5,0,6.75,4.95,10,9,5,8.1,0,9,3.25,4.95Z" transform="translate(-513.418 879.659) rotate(-17)" fill="#fff"/>
      <path id="Polygon_7" data-name="Polygon 7" d="M2,0l.62,2.817L4,5,2,4.367,0,5,1.38,2.817Z" transform="translate(-520 972.367)" fill="#fff"/>
      <path id="Polygon_8" data-name="Polygon 8" d="M3.5,0,4.725,3.85,7,7,3.5,6.3,0,7,2.275,3.85Z" transform="translate(-475.525 944.564) rotate(-17)" fill="#fff"/>
      <path id="Polygon_9" data-name="Polygon 9" d="M3,0,4.05,3.3,6,6,3,5.4,0,6,1.95,3.3Z" transform="translate(-581.22 925.362) rotate(-17)" fill="#fff"/>
    </g>
    <g id="Group_45" data-name="Group 45" transform="translate(16 49)">
      <g id="Group_44" data-name="Group 44" transform="translate(-70 122.633)">
        <g id="sparkle-2" data-name="sparkle" transform="translate(-601.532 845.954)">
          <path id="Path_16-2" data-name="Path 16" d="M317.284,370.226a4.08,4.08,0,1,0,8.142,0c0-7.21,5.478-13.075,12.213-13.075a4.369,4.369,0,0,0,0-8.717c-6.734,0-12.213-5.865-12.213-13.075a4.08,4.08,0,1,0-8.142,0c0,7.21-5.478,13.075-12.213,13.075a4.369,4.369,0,0,0,0,8.717C311.806,357.15,317.284,363.016,317.284,370.226Z" transform="translate(-236.572 -281.573)" fill="rgba(15,76,117,0.8)"/>
          <path id="Path_17-2" data-name="Path 17" d="M0,261.86a2.214,2.214,0,0,0,2.1,2.318c8.086,0,14.806,7.434,14.806,16.379a2.214,2.214,0,0,0,2.1,2.318,2.214,2.214,0,0,0,2.1-2.318c0-8.945,6.58-16.379,14.666-16.379a2.33,2.33,0,0,0,0-4.635c-8.086,0-14.666-7.279-14.666-16.224A2.214,2.214,0,0,0,19,241a2.214,2.214,0,0,0-2.1,2.318c0,8.945-6.72,16.224-14.806,16.224A2.214,2.214,0,0,0,0,261.86Z" transform="translate(3 -187.907)" fill="rgba(15,76,117,0.8)"/>
          <path id="Path_18-2" data-name="Path 18" d="M321.408,36.141c-18.183,0-33.294-14.37-33.294-31.661a4.717,4.717,0,0,0-9.423,0c0,17.291-14.8,31.661-32.98,31.661a4.486,4.486,0,1,0,0,8.961c18.183,0,32.98,14.071,32.98,31.362a4.717,4.717,0,0,0,9.423,0c0-17.291,15.111-31.362,33.294-31.362a4.486,4.486,0,1,0,0-8.961Z" transform="translate(-228.572 0)" fill="rgba(15,76,117,0.8)"/>
          <path id="Path_19-2" data-name="Path 19" d="M72.746,59.336a2.944,2.944,0,1,0,5.873,0c0-5.208,3.952-9.445,8.809-9.445a3.156,3.156,0,0,0,0-6.3c-4.858,0-8.809-4.237-8.809-9.445a2.944,2.944,0,1,0-5.873,0c0,5.208-3.952,9.445-8.809,9.445a3.156,3.156,0,0,0,0,6.3C68.794,49.891,72.746,54.128,72.746,59.336Z" transform="translate(-0.135 30.554) rotate(17)" fill="rgba(15,76,117,0.8)"/>
        </g>
        <path id="Polygon_6-2" data-name="Polygon 6" d="M5,0,6.75,4.95,10,9,5,8.1,0,9,3.25,4.95Z" transform="translate(-547.126 879.575) rotate(-17)" fill="#fff"/>
        <path id="Polygon_7-2" data-name="Polygon 7" d="M2,0l.62,2.817L4,5,2,4.367,0,5,1.38,2.817Z" transform="translate(-542.763 940.25) rotate(-21)" fill="#fff"/>
        <path id="Polygon_8-2" data-name="Polygon 8" d="M3.5,0,4.725,3.85,7,7,3.5,6.3,0,7,2.275,3.85Z" transform="translate(-519.394 911.78) rotate(-17)" fill="#fff"/>
        <path id="Polygon_9-2" data-name="Polygon 9" d="M3,0,4.05,3.3,6,6,3,5.4,0,6,1.95,3.3Z" transform="translate(-582.22 911.995) rotate(-17)" fill="#fff"/>
      </g>
    </g>
  </g>
</svg>
